<?xml version="1.0" encoding="UTF-8"?>
<svg id="Layer_2" data-name="Layer 2" xmlns="http://www.w3.org/2000/svg" viewBox="0 0 1515.17 901.7">
    <g id="Layer_1-2" data-name="Layer 1">
        <g>
            <path class="cls-1"
                  d="M108.37,330.96c.74.16,1.19-.14,2.02-.35l.16-.74c.24-1.12-.35-2.02-.49-3.21-1.02-2.54-1.59-5.38-2.6-7.93-6.44-19.22-10.86-38.79-15.74-58.07-.35-2.02-.33-3.95-.31-5.89-.2-2.76-.92-4.85-2.02-7.03-1.84-2.33-2.86-4.87-3.88-7.42-1.68-3.07-2.47-6.73-6.48-7.97-.37-.08-.59-.9-.51-1.27l.16-.74c.53-.67.98-.96,1.43-1.25,2.33-1.84,3.54-3.91,4.01-6.15.47-2.23.12-4.25-.23-6.26-3.52-20.16-5.48-40.38-7.44-60.59-.55-4.78-.72-9.47-.9-14.17-.24-6.26-.55-12.15-1.15-18.49-1.16-11.12-1.57-22.08-.71-33.54.8-5.66.78-11.1.92-17.28l.78-3.72c.16-.74.98-.96,1.35-.88l.37.08c.74.16,1.04.61,1.25,1.43-1.25,5.95-.2,12,.57,17.59,1.7,15.89,4.68,31.27,8.1,46.36,1.43,6.13,2.49,12.17,3.54,18.22,1.12,7.61,3.5,14.72,5.89,21.82,1.51,5.75,3.46,11.21,5.87,16.38,1.1,2.17,1.74,4.64,4.56,6.01.67.53.8,1.72.57,2.84l-.23,1.12c-2.04,9.67.25,19.08,2.62,28.12,2.29,9.41,5.48,18.24,9.49,26.85,2.92,6.44,7.26,11.62,11.68,16.44.96.98,2,1.59,3.11,1.82.74.16,1.49.31,2.31.1l3.58-.41c.74.16,1.41.68,1.17,1.8-.84,2.15-1.39,4.76-2.31,7.28-.76,1.78-1.23,4.01-1.62,5.87-2.04,9.67-.94,19.22,2.54,28.5,4.64,13.01,9.81,25.36,14.97,37.71,1.23,3.37,3,6.07,5.66,8.18,1.92,1.96,3.46,3.84,5.38,5.79,2.96,2.56,6.07,4.38,9.41,5.09,3.72.78,7.75.08,12.54-2.41.82-.22,1.35-.88,1.51-1.62.08-.37.16-.74-.14-1.19-3.05-7.63-4.83-15.77-10.43-22.39-.59-.9-1.17-1.8-1.84-2.33-5.75-5.87-11.21-11.29-16.97-17.16-.96-.98-2-1.59-3.41-2.27.08-.37-.21-.82-.14-1.19.08-.37.53-.67.9-.59,1.19-.14,2.31.1,3.42.33.74.16,1.49.31,2.15.84,3.78,2.35,7.71,3.95,11.57,5.93,1.7,1.14,3.56,1.53,5.42,1.92,2.6.55,5.28.72,7.97.9,2.31.1,3.74-1.15,4.87-2.86,1.14-1.7,1.82-3.11,2.21-4.97l.31-1.49.59-13.86c.12-4.25-.96-8.36-2.11-12.1-2.25-5.91-5.48-10.86-11.04-13.97-2-1.58-4.36-3.25-6.28-5.21-.37-.08-.59-.9-.43-1.64.08-.37.61-1.04,1.35-.88,2.68.18,5.28.72,8.12.16,3.58-.41,5.54-2.33,6.69-5.97l.55-2.6c.63-2.97.88-6.03-.35-9.39-3.03-9.57-6.52-18.85-12.17-27.03-2.43-3.23-4.03-6.67-5.26-10.04-2.84-6.81-6.13-13.33-9.79-19.92-1.39-2.62-2.78-5.25-3.72-8.16-1.68-3.07-3.74-6.22-6.4-8.34-1.62-1.51-2.88-2.94-4.13-4.36-1.17-1.8-2.43-3.23-1.96-5.46.08-.37.23-1.12.76-1.78.08-.37.45-.29.53-.67.16-.74-.35-2.02-.57-2.84-.55-4.78-1.55-9.26-2.99-13.45-3.84-11.29-8.2-21.92-12.86-33-.29-.45-.14-1.19-.51-1.27-3.25-3.01-3.95-7.05-5.56-10.49-4.66-11.08-8.04-22.66-11.88-33.96-5.48-18.24-11.04-36.11-16.52-54.35-.43-1.64-1.23-3.37-.84-5.23,0,0,.16-.74.53-.67l1.12.23c.88,1.35,1.31,2.99,2.19,4.34,8.59,20.06,20.26,38.44,30.65,57.32,1.47,2.25,2.56,4.42,5.54,5.05l.74.16c.74.16.96.98,1.25,1.43.22.82.51,1.27.72,2.09.88,8.73,5.05,16.6,9.3,24.09,2.56,4.42,5.05,9.22,7.61,13.64,1.9,3.89,4.25,7.5,6.97,11.18,4.78,6.83,9.55,13.66,15.23,19.9,3.54,3.46,7.61,6.26,12.13,8.77,1.41.69,2.37,1.66,2.35,3.6.16,6.63.98,13.8,3.9,20.24,3.56,8.9,8.02,17.22,14.21,24.74,1.92,1.96,3.68,4.66,6.2,5.58,3.72.78,4.29,3.62,5.15,6.91,1.94,7.4,5.89,14.44,10.67,21.27,2.72,3.68,5.44,7.36,9.06,10.45,2,1.59,3.99,3.17,6.22,3.64,1.12.23,2.23.47,3.5-.04l.74.16c.74.16,1.04.61,1.62,1.51,1.02,2.54,2.41,5.17,3.42,7.71,5.83,12.88,13.92,24.29,23.72,34.9,5.17,4.97,10.33,9.94,15.05,15.21,2.29,2.04,4.81,2.96,7.42,3.5l2.23.47c5.36.35,7.69-1.49,8.92-5.5l.63-2.97c.78-3.72,1.19-7.52.04-11.25-1.64-6.95-3.74-13.6-9.65-18.73-.67-.53-.8-1.72-.65-2.47.65-4.91-.35-9.39-1.27-14.25-1.51-5.75-2.94-11.88-4.37-18.01-2.43-10.61-7.1-19.75-15.23-27.28-.96-.98-1.1-2.17-.78-3.66,1.64-7.81-.21-15.58-3.35-22.84-8.96-20.14-21.24-37.48-34.33-54.6-2.13-2.78-4.79-4.89-7.01-7.3-.67-.53-1.33-1.06-2.45-1.29l-.74-.16c-.45.29-1.19.14-1.57.06-1.12-.23-1.7-1.14-2.13-2.78-1.15-3.74-2.23-7.85-4.13-11.74-4.38-8.69-10.2-16.13-16.46-23.27-10.76-11.59-21.61-22.8-32.37-34.39-6.63-7.22-13.19-14.82-20.2-22.12-9.8-10.61-19.53-21.59-29.63-32.64-1.55-1.88-3.54-3.46-5.54-5.05-.29-.45-.22-.82-.14-1.19s.53-.67.9-.59c2.9,1,4.89,2.58,7.26,4.25,2.66,2.11,5.25,4.6,8.2,7.16,12.04,11.08,24.07,22.15,36.03,33.6,4.29,3.62,8.04,7.91,12.17,12.27l15.5,14.91c6.13,5.95,12.78,11.23,20.49,15.19,3.11,1.82,6.22,3.64,9.57,4.34,1.86.39,4.17.49,6.18.14l.74.16c.74.16,1.04.61,1.25,1.43,1.49,7.69,6.5,13.41,11.21,18.67,5.81,7.44,13.05,13.62,20.37,19.43,2.37,1.66,4.81,2.96,7.26,4.25,1.04.61,2.15.84,3.27,1.08,1.19-.14,1.57-.06,2.31.1.74.16.96.98,1.31,2.99.49,3.21,2.7,5.62,4.91,8.02,2.96,2.56,6.07,4.38,9.18,6.2,1.33,1.06,3.19,1.45,4.68,1.76l.74.16c1.86.39,3.58-.41,5.09-2.04,1.14-1.7,2.27-3.41,3.11-5.56,1.29-2.45,2.21-4.97,2.84-7.95,3.62-11.66,6.5-23.49,9-35.39,2.97-14.13,7.06-28.03,11.16-41.92.84-2.15,1.68-4.31,2.97-6.75,0,0,.45-.29.82-.22l.37.08.59.9-.39,1.86c-3.21,15.25-4.85,30.43-7.32,45.84-1.84,12.43-3.23,24.56-3.88,36.85-.21,6.56.39,12.9.25,19.08.18,4.7,2.53,8.3,3.97,12.49.06,1.57,1.47,2.25,2.88,2.94,6.09,2.45,12.25,4.52,18.57,5.85,2.98.63,6.32,1.33,9.38,1.58,4.25.12,8.49.23,12.6-.84,2.92-.94,5.91-2.25,8.32-4.46.53-.67,1.35-.88,1.88-1.55.98-.96,1.8-1.17,2.54-1.02.37.08,1.04.61,1.47,2.25,1.16,3.74,2.31,7.48,4.66,11.08,1.76,2.7,4.13,4.36,7.69,5.89,2.9,1,5.42,1.92,8.4,2.54,6.69,1.41,13.25,1.62,20.18,1.92,1.19-.14,2.39-.27,3.66-.78,10.02-3.33,19.83-7.48,28.24-14.25,12.25-10.24,23.92-21.37,35.79-31.69,6.17-5.3,12.62-10.16,18.34-15.17,2.86-2.51,5.64-4.64,8.49-7.14.53-.67,1.43-1.25,2.25-1.47,0,0,.74.16,1.04.61l-.24,1.12c-.16.74-.61,1.04-1.51,1.62-9.33,9.3-19.04,18.51-28.16,28.63-5.05,5.54-9.88,11.9-13.97,18.42-2.8,4.07-5.6,8.14-7.73,12.74-.68,1.41-1.29,2.45-1.6,3.93-.16.74-.02,1.94-.18,2.68-.04,3.88,1.64,6.95,5.36,7.73,6.4.96,12.96,1.17,17.34-4.89.53-.67.98-.96,1.72-.8.37.08.67.53,1.33,1.06.88,1.35,1.68,3.07,2.56,4.42,1.98,3.52,5.01,5.71,8.65,6.87l3.35.7c3.35.7,6.77,1.04,10.28,1,4.77-.55,9.47-.72,14.33-1.64,3.29-.86,6.5-1.35,9.2-3.11,3.52-1.98,7.48-2.31,10.33-4.81.45-.29.9-.59,1.27-.51s.67.53.96.98c3.09,3.76,7.03,5.36,11.25,7.42,1.41.69,2.52.92,4.01,1.23,1.12.23,2.6.55,4.17.49,1.19-.14,2.68.18,3.88.04,11.19-1.53,22.53-1.86,33.13-4.29,4.11-1.08,8.06-1.41,11.8-2.56,3.21-.49,6.5-1.35,9.35-3.86.53-.67,1.35-.88,2.09-.72.37.08.67.53,1.04.61,1.04.61,2.07,1.21,3.19,1.45,1.86.39,4.25.12,6.71-.53,2.01-.35,4.11-1.08,6.12-1.43,18.61-5.4,37.44-9.98,55.97-15.01,3.66-.78,7.32-1.57,11.19-1.53.37.08.74.16,1.04.61-.08.37-.16.74-.61,1.04-.45.29-1.27.51-2.09.72-12.72,5.09-25.29,9.43-38.01,14.52-11.74,4.13-22.82,8.79-34.64,13.29-6.36,2.54-12.43,5.54-17.69,10.26-.9.59-1.72.8-2.84.57-5.44.02-10.08,1.76-14.8,3.88-10.33,4.81-20,10.16-29.75,15.87-3.52,1.98-6.91,5.15-9.55,8.47-.98.96-2.04,2.29-2.64,3.33-2.43,4.15-5.36,7.03-10.59,7.87-3.58.41-6.73,2.47-9.96,4.89-6.46,4.85-12.33,10.61-16.87,17.42-1.37,2.82-3.78,5.03-5.23,8.22-.76,1.78-1.53,3.56-2,5.79-.39,1.86-.49,4.17.16,6.63l-.23,1.12c-.16.74-.69,1.41-1.51,1.62-5.38,1.59-8.47,5.21-11.06,10.1-5.77,10.82-10.14,22.33-13.09,34.52l-.78,3.72c-.63,2.97-.88,6.03-.02,9.32-.08.37.22.82.06,1.57-.08.37-.61,1.04-1.06,1.33-.98.96-1.96,1.92-2.86,2.51-2.33,1.84-3.62,4.29-4.54,6.81-1.15,3.64-2.31,7.28-3.09,11-1.25,5.95-1.68,11.68-1.37,17.57-.04,3.88.82,7.16,3.33,10.02.59.9,1.17,1.8,1.39,2.62.29.45.14,1.19.06,1.57-.45.29-1.19.14-1.57.06l-.74-.16c-2.53-.92-5.05-1.84-7.28-2.31-7.81-1.64-15.79-.61-23.86.8-2.92.94-6.12,1.43-8.83,3.19-3.15,2.05-6.3,4.11-8.2,7.59-.61,1.04-1.14,1.7-2.25,1.47l-2.6-.55c-4.09-.86-7.83.29-11.72,2.19-10.78,5.11-20.31,11.65-29.34,19.45-.9.59-1.51,1.62-2.11,2.66-.53.67-.69,1.41-.76,1.78-.31,1.49.2,2.76,1.15,3.74,3.17,3.39,6.87,6.11,11.33,7.05,1.12.23,2.6.55,3.8.41,1.12.23,1.94.02,2.68.18,1.86.39,3.27,1.08,4.6,2.13,2.37,1.66,4.89,2.58,7.5,3.13,2.6.55,5.66.8,8.94-.06.82-.22,1.64-.43,2.76-.2.74.16,1.41.69,2.37,1.66,3.46,3.84,7.69,5.89,12.15,6.83,2.98.63,5.66.8,8.79.69,3.13-.12,6.05-1.06,9.1-.8,7.75.08,14.93-2.68,21.45-5.97,2.54-1.02,5.09-2.04,7.18-2.76.45-.29.9-.59,1.27-.51.37.08.67.53.96.98.29.45.22.82.22.82-.08.37-.53.67-.98.96-2.11,2.66-4.52,4.87-6.48,6.79-3.84,3.46-6.26,7.61-8.47,12.58-1.84,5.05-3.68,10.1-4.77,15.3-.86,4.09-1.43,8.63-1.55,12.88-.27,4.99.2,10.14,1.12,14.99.49,3.21,2.25,5.91,4.01,8.61,1.76,2.7,3.07,5.7,4.31,9.06.21.82.51,1.27.35,2.02-.16.74-.61,1.04-1.13,1.7-3.17,3.99-5.6,8.14-6.54,12.6-.63,2.97-.8,5.66-.31,8.87.12,3.13.61,6.34,1.1,9.55.33,3.95,2.23,7.85,5.93,10.57.67.53,1.33,1.06,1.1,2.17l-.16.74c-1.21,2.07-1.68,4.31-2.07,6.17-1.02,4.83-.92,9.9,0,14.76.98,6.42,2.04,12.47,3.84,18.67.43,1.64.86,3.29,1.37,4.56,1.16,3.74,3.21,6.89,6.69,8.79,2.07,1.21,3.33,2.64,2.78,5.25-1.02,4.83.43,9.02,3.07,13.07,3.82,5.85,8.46,11.49,13.09,17.12,12,14.95,24.37,29.98,36.36,44.94.67.53,1.25,1.43,1.84,2.33.67.53.88,1.35.72,2.09-.08.37-.45.29-.82.22-.74-.16-1.12-.23-1.78-.76-2.43-3.23-4.93-6.09-7.44-8.94-9.14-10.08-19.79-18.53-31.33-26.4-3.7-2.72-7.93-4.78-12.76-5.79-1.12-.23-2.68-.18-3.8-.41l-1.12-.23c-1.49-.31-2.08-1.21-2.88-2.94-.65-2.47-2.64-4.05-4.19-5.93-7.83-7.08-16.95-11.72-27.36-13.92-1.86-.39-3.72-.78-5.81-.06-1.57.06-2.84.57-3.6,2.35-.61,1.04-1.06,1.33-1.8,1.17-.37-.08-1.12-.23-1.41-.69-2-1.58-4.07-2.8-6.67-3.35l-1.86-.39c-3.8-.41-7.75-.08-11.35,2.27-3.52,1.98-7.12,4.33-10.73,6.67-1.8,1.17-3.76,3.09-4.3,5.7l-.16.74c-.31,1.49-1.21,2.07-2.7,1.76-4.17-.49-7.32,1.57-9.88,4.52-2.11,2.66-4.15,4.95-5.6,8.14-.61,1.04-.92,2.52-1.15,3.64-.7,3.35.16,6.63,2.58,9.86,3.54,3.46,6.11,7.89,11.16,9.73.37.08.67.53.51,1.27l-.16.74c-.53.67-.68,1.41-.84,2.15-.63,2.97.31,5.89,2.07,8.59,1.1,2.17,2.64,4.05,4.48,6.38,1.17,1.8,2.21,2.41,3.7,2.72,1.12.23,2.68.18,4.4-.63,4.19-1.45,8.38-2.9,12.27-4.8,8.85-5.13,18.2-8.98,26.46-15.01,8.26-6.03,16.6-12.43,24.56-18.91.9-.59,1.88-1.55,3.15-2.05l1.12.23c.29.45.21.82.06,1.57-3.39,3.17-6.85,6.71-10.61,9.81-9.63,8.85-18,19.12-26.67,28.95-3.17,3.99-6.63,7.54-9.88,11.9-3.4,5.11-5.69,10.45-7.32,16.32l-.39,1.86c-.55,2.6-.72,5.28-.53,8.04.06,1.57.57,2.84,1.45,4.19,4.75,8.77,10.04,16.87,17.5,23.88,2.96,2.56,5.62,4.68,9.71,5.54l1.12.23c1.86.39,2.82,1.37,2.88,2.94.74,7.53,5.46,12.8,10.26,17.69,18.53,17.1,36.99,34.58,57.11,49.69.67.53.96.98,1.25,1.43-.08.37-.24,1.12-.61,1.04l-2.6-.55c-3.56-1.53-7.12-3.05-10.24-4.87-7.63-4.33-15.19-9.02-22.37-13.64-5.19-3.03-10.29-6.44-15.64-8.73-2.15-.84-3.86-1.98-6.09-2.45-1.12-.23-1.86-.39-3.05-.25l-.74-.16c-.37-.08-.66-.53-.96-.98-.41-3.58-3.07-5.7-5.66-8.18-5.75-5.87-11.14-11.66-16.89-17.54-4.79-4.89-10.27-8.38-16.97-9.79-.74-.16-1.41-.69-1.62-1.51-1.17-9.18-7.3-15.13-13.43-21.08-.37-.08-.67-.53-1.04-.61-3.84-3.91-8.73-6.5-13.56-7.52-4.09-.86-8.42-.61-12.82.02-2.31-.1-4.48,1-5.91,2.25-1.43,1.25-3.15,2.06-4.87,2.86,1.17-5.58,4.42-9.94,6.63-14.91,1.29-2.45,1.84-5.05,2.31-7.28,1.49-7.07.59-13.86-4.19-20.69-4.11-6.3-8.3-12.23-13.39-17.57-1.92-1.96-3.09-3.76-5.69-4.31-.74-.16-1.49-.31-2.31-.1l-.37-.08c-1.12-.23-1.33-1.06-1.55-1.88-.14-1.19-.27-2.39-.49-3.21-2.02-7.03-6.44-11.84-13.43-13.7l-6.32-1.33c-6.69-1.41-13.84-2.52-20.78-.88-3.29.86-6.95,1.64-10.37,1.31-1.49-.31-2.76.2-4.03.7-5.38,1.59-10.61,2.43-15.83,3.27-10.37,1.31-20.24,3.89-30.47,6.4-5.3,1.21-11.06,2.72-16.22,5.13-2.47.65-5.38,1.59-6.6,3.66-1.58,2-2.86,2.5-4.72,2.11-.37-.08-1.12-.23-1.78-.76-2.15-.84-4.68-1.76-6.91-2.23-4.83-1.02-9.45-1.21-14.15-1.04l-32.88,1.23c-7.75-.08-15.05-.45-22.8-.53-8.94.06-18.34.41-27.36.84-10.96.41-22.21.37-33.31-.41-9.61-.47-19.22-.94-28.38-1.7-8.87-.31-17.2-1.29-25.76-3.09-2.6-.55-5.28-.72-8.26-1.35-.37-.08-1.19.14-1.57.06-.74-.16-1.04-.61-1.25-1.43l.08-.37c.08-.37.45-.29.9-.59.9-.59,2.02-.35,2.76-.2l1.86.39c6.48.59,13.25,1.62,19.88,1.47,14.01-.16,28.61.59,42.72-1.88,10.45-1.68,20.61-3.82,30.33-7.59,2.54-1.02,4.56-1.37,5.03-3.6l.16-.74c.16-.74.98-.96,1.72-.8l.37.08c1.12.23,2.52.92,3.64,1.15,5.95,1.25,12,.2,18.26-.04,7.91-.67,16.26-1.62,24.17-2.29,7.16-.82,14.62-1.19,22.08-1.57,4.4-.63,9.18-1.17,13.66-2.17,3.29-.86,6.36-2.54,9.22-5.05,2.25-1.47,3.76-3.09,4.31-5.69.16-.74-.06-1.57.1-2.31.08-.37-.21-.82-.21-.82.24-1.12,1.13-1.7,2.25-1.47.37.08.67.53,1.04.61,2.45,1.29,4.52,2.5,7.12,3.05,4.46.94,9.24.39,14.17-.9,4.93-1.29,10.02-3.33,15.11-5.36,1.19-.14,2.17-1.1,3.37-1.23,7.24-1.19,13.54-5.3,20.57-7.32,1.64-.43,2.92-.94,4.56-1.37.82-.22,1.64-.43,2.09-.72,6.75-4.4,14.01-7.53,19.73-12.55,5.19-4.34,9.41-9.67,11.94-16.13.61-1.04.84-2.15,1.08-3.27.16-.74.02-1.94.25-3.05l.31-1.49c.94-4.46-1.19-7.24-4.52-9.88-1.04-.61-1.62-1.51-1.55-1.88.16-.74.61-1.04,1.51-1.62.98-.96,2.17-1.1,3.15-2.05,1.35-.88,3.15-2.06,4.58-3.31.98-.96,1.66-2.37,1.9-3.48l.31-1.49c.1-2.31.27-4.99.82-7.59.43-5.73-.86-10.67-3.72-15.54-5.5-8.92-13.41-15.64-21.92-21.31-9.92-6.36-20.53-11.31-31.67-15.6-3.19-1.45-6.67-3.35-10.24-4.87-2.82-1.37-5.56-3.11-8.46-4.11-.74-.16-1.41-.69-1.25-1.43.23-1.12,1.43-1.25,2.17-1.1,1.12.23,2.6.55,4.01,1.23l18.49,6.22c6.91,2.23,13.74,4.83,21.02,7.14,2.23.47,4.01,1.23,6.24,1.7,1.86.39,4.17.49,6.03.88,3.42.33,6.85.67,10.08-1.76s4.89-4.79,5.68-8.51l.39-1.86c.67-6.85.51-13.48-.39-20.28-1.21-5.3-2.88-10.31-8.67-12.31-.67-.53-.96-.98-.8-1.72l.16-.74c.69-1.41.92-2.52,1.23-4.01.55-2.6.72-5.28,1.27-7.89.88-6.03-1.45-11.57-4.6-16.89-1.39-2.62-3.6-5.03-5.81-7.44-8.92-9.26-19.51-16.15-30.71-22-1.33-1.06-2.74-1.74-4.15-2.43-.37-.08-.74-.16-.67-.53l.45-.29c.08-.37.53-.67.9-.59l1.12.23c11.66,3.62,22.8,7.91,34.31,12.27,4.3,1.68,9.06,3.07,13.45,4.38.53-.67.61-1.04.68-1.41.16-.74.23-1.12-.06-1.57-1.1-9.55-2.19-19.1-5.75-28.01-.59-.9-.72-2.09-.49-3.21l.47-2.23c.39-1.86.04-3.88-.23-6.26-.47-5.15-.86-10.67-.88-16.11-.31-5.89-1.82-11.65-4.52-17.26-3.21-6.89-7.69-13.27-12.17-19.65-7.87-10.59-16.71-20.22-26.01-29.55-3.54-3.46-7.24-6.18-10.86-9.28-3.33-2.64-6.89-4.17-11.27-5.48-2.98-.63-5.36-.35-7.91.67-6.73,2.47-12.58,6.28-17.18,11.53-1.96,1.92-2.8,4.07-3.27,6.3-.55,2.6-.27,4.99,1.04,7.99,1.15,3.74,3.37,6.15,5.95,8.63,10.26,10.31,21.49,19.67,31.82,29.61,5.91,5.13,11.82,10.26,18.34,14.35.29.45.96.98,1.25,1.43l-.23,1.12s-.45.29-.82.22l-1.86-.39c-1.33-1.06-3.11-1.82-4.44-2.88-15.03-9.77-31.04-18.57-47.29-26.26-3.19-1.45-6.54-2.15-9.73-3.6-.74-.16-1.57.06-2.31-.1-1.19.14-2.09.72-2.41,2.21-.31,1.49-.63,2.97-.57,4.54-.04,11.25-.45,22.43,1.08,33.62.9,6.79,3.31,11.96,8.18,16.48l2,1.59c.67.53.88,1.35.72,2.09-.08.37-.16.74-.61,1.04-.16.74-.61,1.04-1.14,1.7-3.15,2.06-3.78,5.03-4.48,8.38-.33,3.43-.29,6.93.2,10.14.84,12.6,4.15,24.56,8.36,35.93,1.23,3.37,2.41,5.17,3.9,5.48,1.49.31,3.21-.49,5.83-1.88.08-.37.45-.29.45-.29.9-.59,1.96-1.92,3.07-1.68q.37.08.67.53c.29.45.21.82.06,1.57-.16.74-.31,1.49-.84,2.15-1,2.9-2,5.79-2.54,8.4-.71,3.35-1.04,6.77-1,10.27-.14,6.18.55,12.15,2.35,18.36,3.52,12.78,7.5,25.27,12.21,37.91,1.23,3.37,2.02,7.03,3.62,10.47,5.68,13.62,12.7,26.36,20.26,38.44,6.09,9.82,11.8,19.57,17.52,29.32.29.45.59.9.43,1.64l-.08.37c-.08.37-.53.67-1.27.51-.29-.45-1.41-.69-1.62-1.51-3.01-4.13-7.01-7.3-10.39-11.51-5.3-6.16-10.53-12.7-15.75-19.24-8.24-10.67-16.4-21.7-25.62-31.41-4.13-4.36-8.34-8.36-12.17-12.27-.59-.9-1.62-1.51-2.37-1.66-1.12-.23-1.94-.02-2.92.94-.45.29-.82.22-1.19.14-.37-.08-1.04-.61-1.33-1.06-.59-.9-.8-1.72-1.39-2.62-4.81-10.33-12.04-18.46-20.98-25.77-6.65-5.28-13.68-10.65-21.24-15.34-5.4-3.86-10.35-8-16.28-11.19-2.45-1.29-4.66-3.7-7.03-5.36-4.66-3.7-9.69-7.48-15.48-9.47-1.41-.69-3.27-1.08-4.76-1.39s-2.98-.63-4.62-.2c-.74-.16-1.78-.76-1.55-1.88.94-4.46-2.09-6.65-5.5-8.92-2.37-1.66-5.19-3.03-7.63-4.32-12.31-6.09-24.62-12.17-37.09-17.52-14.25-6.11-28.65-11.47-43.06-16.83-7.28-2.31-14.7-5.81-21.9-8.49-3.93-1.6-7.95-2.84-11.96-4.07-.67-.53-1.41-.69-1.17-1.8.16-.74.98-.96,1.35-.88,1.86.39,3.8.41,5.28.72,10.71,2.64,21.12,4.83,31.37,7.77,11.74,3.25,23.49,6.5,35.07,10.49,8.4,2.54,17.61,4.87,25.78,8.53,3.56,1.53,7.28,2.31,10.92,3.46,6.09,2.45,12.54,4.97,19,7.5,8.61,3.37,17.59,6.81,26.58,10.25,2.15.84,4.01,1.23,6.09,2.45,5.11,3.41,10.45,5.7,16.4,6.95,1.86.39,3.11,1.82,4.6,2.13.37.08.74.16,1.19-.14.37.08.45-.29.45-.29q.08-.37-.29-.45c.16-.74.31-1.49.02-1.94-4.07-10.18-9.49-19.47-17.69-26.64-2.96-2.56-6.44-4.46-9.92-6.36l-18.67-10.92c-1.41-.68-3.11-1.82-4.6-2.13-1.49-.31-3.5.04-5.3,1.21-.45.29-1.19.14-1.57.06-.67-.53-.88-1.35-.72-2.09.92-2.52,1.76-4.68,2.97-6.75,1.13-1.7,1.6-3.93,2-5.79.63-2.97.51-6.11-.35-9.39-2.02-7.03-3.95-14.42-8.44-20.8-3.01-4.13-5.42-9.3-7.46-14.38-3.56-8.91-7.95-17.59-12.33-26.28-4.17-7.87-8.34-15.74-13.41-23.02l-1.76-2.7c-5.01-5.71-11.37-10.55-18.42-13.97-.74-.16-1.86-.39-3.05-.25l-1.86-.39c-1.49-.31-1.78-.76-1.53-3.82.57-4.54-1.19-7.24-4.52-9.88-5.32-4.23-10.65-8.45-16.42-12.39-14.66-9.69-29.92-18.34-44.06-28.69-2.37-1.66-4.81-2.96-7.26-4.25-1.04-.61-2.45-1.29-3.41-2.27-.37-.08-.21-.82-.14-1.19.08-.37.16-.74.9-.59,1.49.31,2.98.63,4.38,1.31,2.15.84,4.31,1.68,6.38,2.9,2.82,1.37,5.19,3.03,8.16,3.66.74.16,1.49.31,2.15.84,6.75,2.97,13.5,5.95,20.18,9.3,2.45,1.29,5.26,2.66,7.63,4.33,11.86,6.38,23.64,13.13,35.5,19.51,2.08,1.21,4.15,2.43,6.15,4.01,4.74,3.33,10.45,5.69,15.79,7.98.37.08.67.53,1.04.61ZM171.04,391.14c-.31,1.49-.18,2.68-.04,3.88,3.41,9.65,7.26,19,12.02,27.77,3.95,7.05,8.88,13.13,14.19,19.3.29.45.67.53,1.04.61l.37.08c.45-.29.9-.59.98-.96l-.22-.82c.47-9.61-.7-18.79-3.9-27.61-.78-3.66-1.64-6.95-.86-10.67l.23-1.12c1.1-5.21.25-10.43-1.41-15.44-.72-2.09-1.9-3.89-4.13-4.36l-.74-.16c-5.58-1.17-10.35-.63-14.27,3.21-1.43,1.25-2.8,4.07-3.27,6.3ZM230.08,322.8c-.33,3.43-.82,7.59-.94,11.84.06,1.57.72,2.09,1.47,2.25l1.12.23c3.58-.41,7.24-1.19,10.31-2.88,5.62-2.7,9.84-8.02,11.1-13.97.39-1.86.41-3.8.06-5.81-.14-1.19-.35-2.02-1.39-2.62-3.11-1.82-5.77-3.93-8.89-5.75-.29-.45-1.04-.61-1.41-.69-1.12-.23-2.02.35-3.29.86-2.62,1.39-4.29,3.76-5.28,6.65-1.08,3.27-2.07,6.17-2.86,9.88ZM315.24,333.35c1.25,1.43,2.96,2.56,5.19,3.03l1.12.23c.61-1.04.76-1.78,1-2.9.23-1.12.47-2.23-.12-3.13-.21-.82-.88-1.35-1.62-1.51-.37-.08-.74-.16-1.19.14-1.72.8-3.52,1.98-4.36,4.13ZM342.77,219.15l-.16.74c-.96,6.4-1.17,12.96-1.02,19.59.21.82.35,2.02.72,2.09,4.62.2,7.77-1.86,10.71-4.74,3.09-3.62,5.52-7.77,6.83-12.15.24-1.12-.06-1.57-1.09-2.17-4.31-1.68-8.53-3.74-13.37-4.76-1.49-.31-2.31-.1-2.62,1.39ZM386.48,681.15c-4.17-.49-7.75-.08-11.49,1.08-2.47.65-4.56,1.37-7.24,1.19-4.99-.27-9.77.27-13.82,2.92-2.78,2.13-6.22,3.74-9.3,5.42l-2.25,1.47c1.04.61,1.41.69,1.78.76,5.89-.31,11.63.12,16.66-3.48,1.64-.43,3.21-.49,4.7-.18,2.68.18,4.7-.18,7.24-1.19,4.19-1.45,8.53-3.64,12.58-6.28.45-.29.61-1.04,1.13-1.7ZM349.21,267.88l-.31,1.49c-1.53,10.94-.14,20.94,8.36,28.55,1.33,1.06,1.55,1.88,1.31,2.99l-.23,1.12c-.61,1.04-.92,2.52-1.15,3.64-.31,1.49-.55,2.6-.41,3.8.25,11.7,2.98,22.76,8.24,32.8,2.19,4.34,5.6,6.62,9.98,7.93l1.86.39c.74.16,1.49.31,2.45,1.29-2.21,4.97-3.31,10.18-4.78,15.3l-.23,1.12c-.31,1.49.2,2.76,1.45,4.19,5.62,4.68,11.39,8.61,18.22,11.21,4.31,1.68,8.98,3.44,13.37,4.76,3.27,1.08,6.24,1.7,9.59,2.41,5.58,1.17,11.23,1.98,17.12,1.66,3.13-.12,6.18.14,8.67-2.45.45-.29,1.27-.51,1.64-.43,1.94.02,2.92-.94,4.34-2.19,1.88-1.55,3.84-3.46,6.09-4.93,2.33-1.84,3.54-3.91,4.09-6.52.24-1.12.47-2.23.33-3.43.02-1.94-.33-3.95-.76-5.6-4.07-17.56-11.14-33.8-22.1-48.15-14.35-18.55-28.24-37.4-43.49-55.37-1.25-1.43-2.43-3.23-3.68-4.66-.21-.82-.88-1.35-.72-2.09.08-.37.45-.29.53-.67.45-.29.82-.22,1.19-.14.37.08,1.04.61,1.7,1.14,2,1.59,4.36,3.25,6.28,5.21,4.79,4.89,9.96,9.86,14.76,14.76,10.39,11.51,22.74,21.1,34.64,30.98,1.33,1.06,3.03,2.19,4.44,2.88,3.86,1.98,7.63,4.33,11.49,6.3,1.41.69,2.82,1.37,4.31,1.68,2.97.63,6.18.14,9.55-1.1,5.54-2.33,9.08-6.24,11.37-11.59.84-2.15,1.76-4.68,2.68-7.2.84-2.15,3.46-3.54,5.42-5.46,0,0,.37.08.45-.29,1.59-2,2.8-4.07,3.27-6.3.39-1.86.04-3.88-.61-6.34-1.74-4.64-4.01-8.61-6.65-12.66-4.4-6.75-9.86-12.17-16.6-17.09-1.04-.61-2.45-1.29-3.56-1.53-1.12-.23-2.31-.1-3.5.04-4.11,1.08-8.44,1.33-12.04,3.68-1.27.51-2.47.65-3.58.41l-1.49-.31c-6.24-1.7-12.49-3.41-19.1-5.19l-2.6-.55c-6.32-1.33-12.74-.35-18.65,1.9-1.27.51-2.09.72-2.84.57-.74-.16-1.12-.23-1.78-.76-8.28-6.79-18.06-11.96-27.93-16.75-.67-.53-1.41-.68-2.07-1.21l-1.12-.23c-1.12-.23-2.31-.1-3.66.78-1.8,1.17-3.39,3.17-5.26,4.72-9.26,8.92-15.62,18.85-18.28,31.49ZM387.57,417.7c1.86.39,3.8.41,5.89-.31,3.29-.86,6.28-2.17,8.98-3.93,1.27-.51,2.7-1.76,3.97-2.27,2.09-.72,3.37-1.23,3.52-1.98.24-1.12-.72-2.09-1.9-3.89-1.55-1.88-3.46-3.84-5.38-5.79-7.54-6.63-16.81-10.53-25.58-13.15l-2.97-.63c-1.49-.31-2.31-.1-2.62,1.39l-.16.74c.31,5.89,1.37,11.94,3.7,17.48,1.23,3.37,3.66,6.6,6.62,9.16,2,1.59,4.07,2.8,5.93,3.19ZM384.58,529.69c-.84,2.15-1.68,4.31-2.15,6.54-1.64,7.81-.61,15.79,2.37,23.8,1.1,2.17,2.11,4.72,1.57,7.32l-.24,1.12c-.31,1.49.04,3.5.84,5.23,1.45,4.19,2.74,9.12,5.01,13.09l2.64,4.05c1.33,1.06,1.62,1.51,1.47,2.25-.08.37-.61,1.04-1.13,1.7-3.09,3.62-4.7,7.55-5.56,11.65l-1.17,5.58c-.71,3.35-1.04,6.77-.92,9.9-.04,3.88,1.04,7.98,3.99,10.55,4.21,3.99,8.95,7.32,14.29,9.61,1.41.69,3.27,1.08,4.76,1.39,2.23.47,4.09.86,6.48.59,1.94.02,3.58-.41,5.01-1.66,4.36-4.13,9.02-7.81,12.72-12.47,2.64-3.33,4.91-6.73,5.77-10.82.47-2.23.27-4.99-.37-7.46-.37-.08-.29-.45-.29-.45-.21-.82-.14-1.19.02-1.94.08-.37.61-1.04,1.51-1.62,3.89-1.9,5.71-5.01,7.32-8.94,1.37-2.82,2.37-5.71,3.07-9.06.78-3.72,1.19-7.52,1.53-10.94.8-5.66,1.61-11.31,1.96-16.67.57-4.54.31-8.87-1.96-12.84-.88-1.35-2.05-3.15-1.66-5.01.94-4.46-.21-8.2-2.11-12.1-2.7-5.62-5.85-10.94-11.33-14.42-2.66-2.11-5.85-3.56-9.2-4.27s-6.48-.59-10.29.94c-1.64.43-3.21.49-5.07.1l-2.6-.55c-3.35-.7-6.18-.14-9.47.72-4.11,1.08-7.34,3.5-10.27,6.38-2.49,2.58-5.34,5.09-6.5,8.73ZM404.82,651.22c.08-.37-.21-.82-.51-1.27-3.76-4.29-8.81-6.13-13.86-7.97-1.12-.23-1.64.43-1.8,1.17-.49,4.17,3.27,8.45,8.47,9.55l.74.16c1.12.23,3.13-.12,5.07-.1.82-.22,1.72-.8,1.88-1.55ZM458.23,646.54c-.08.37.21.82.88,1.35,2.07,1.21,4.23,2.06,6.83,2.6,2.6.55,5.29.72,8.12.16-.84-5.23-2-8.96-4.05-12.11-.22-.82-.96-.98-1.33-1.06-.37-.08-.74-.16-1.64.43-3.15,2.06-6.01,4.56-8.2,7.59-.45.29-.53.67-.61,1.04ZM500.61,249.66c-.08.37-.16.74.21.82,2.86,4.87,6.17,9.45,11.12,13.6,2.27-3.41,3.35-6.67,4.79-9.86.24-1.12.02-1.94-1.39-2.62-1.78-.76-3.56-1.53-5.42-1.92-2.6-.55-5.66-.8-8.34-.98-.45.29-.9.59-.98.96Z"/>
            <path class="cls-1"
                  d="M1514.57,278.91c-7.06,3.82-13.51,8.67-20.04,13.15-11.41,7.45-22.52,14.45-34.01,21.53-6.23,4.03-11.63,8.27-17.03,12.52-3.75,2.73-5.84,5.89-4.82,10.72.47,2.23.25,3.05-1.26,3.37-.38.08-1.13.24-1.96.02l-4.52.95c-6.38,3.29-11.41,7.45-16.65,12.44-.97.98-1.87,2.33-2.76,3.69-5.15,7.3-9.01,15.1-13.25,22.98-4.76,9.16-9.51,18.31-13.36,28.05-1.93,3.9-3.78,8.17-6.47,12.24-4.18,6.32-6.61,13.43-9.04,20.54-1.18,3.74-1.23,7.25-.44,10.97.39,1.86,1.16,3.64,1.93,5.42,1.22,2.07,2.15,4.6,3.07,7.12.16.74-.82,1.73-1.57,1.88l-.38.08c-.45-.29-.83-.21-.91-.59-1.82-1.17-3.4-1.23-4.91-.91-1.51.32-2.56.93-3.99,1.62-7.06,3.82-14.04,8-21.1,11.82-7.74,4.35-13.57,10.24-18.42,17.08-3.74,4.67-5.28,10.43-7.8,15.23-.3.45-.89,1.35-.74,2.1q.08.37.53.66c.53.66.91.59,1.29.51s1.05-.61,1.73-1.14c.75-.16,1.8-.77,2.56-.93,6.02-1.27,11.81-3.65,16.62-6.99,1.73-1.14,3.53-1.91,5.79-2.38,10.9-4.24,22.19-8.55,33.09-12.79,4.74-1.77,9.7-4.37,14.51-5.77,9.04-1.9,17.6-6.04,26.48-8.68,12.87-4.26,25.81-8.15,38.83-11.67,11.81-3.65,24.16-6.64,36.51-9.63l3.01-.63c1.51-.32,2.63-.55,4.3-.13.83.21,1.29.51,1.36.88.16.74-.52,1.27-.89,1.35-5.95,1.64-11.28,4.32-17.15,6.33-12.41,4.55-24.74,9.48-37.16,14.04-11.36,3.94-22.56,8.63-33.31,13.61-10.07,4.45-19.69,9.19-29.61,14.39-2.86,1.38-5.26,3.05-8.03,4.8-2.4,1.67-4.35,3.63-4.02,7.06.23,1.12-.36,2.02-1.12,2.18-.75.16-1.21-.13-1.58-.05-1.13.24-2.34.1-3.84.42-5.65,1.19-10.98,3.87-15.33,7.5-6.83,4.93-13.95,10.32-21.23,14.95-3.83,2.36-7.58,5.09-11.33,7.82-7.2,5.01-14.33,10.39-21,16.07-4.35,3.63-8.24,7.56-11.6,12.15-3.06,4.14-5.29,8.49-7.52,12.84-.22.82-.89,1.35-1.27,1.43-.38.08-.83-.21-1.29-.51-.99-.96-1.82-1.17-2.57-1.01-.75.16-1.81.77-2.4,1.67-4.57,4.46-8.84,8.46-13.03,12.84-8.6,9.58-16.67,19.82-24.74,30.06-5.3,6.55-10.91,13.56-16.59,20.19-3.44,4.22-7.78,7.85-11.14,12.44-.38.08-.67.53-1.05.61s-1.13.24-1.58-.05q-.46-.29-.53-.66c-.08-.37-.16-.74.22-.82,4.1-6.69,7.82-13.3,11.99-19.61,7-11.57,14.08-22.77,20.25-34.55,1.93-3.9,4.32-7.51,5.5-11.25,2.95-8.39,6.36-16.48,8.94-24.79,1.78-4.65,2.8-9.13,4.57-13.78,2.59-6.37,3.82-13.62,5.58-20.2.6-.9.74-2.1.88-3.29.25-6.27.43-12.91-.82-18.85-.63-2.97-1.63-5.87-3.01-8.69-.53-.66-.69-1.41-.77-1.78-.16-.74-.31-1.49.36-2.02,1.51-.32,2.12.72,3.03,1.3,1.82,1.17,3.72,2.71,5.83,3.43.91.59,2.12.72,2.87.56,1.13-.24,1.81-.77,2.7-2.12.6-.9,1.19-1.8,1.41-2.63,4.43-12.58,8.11-25.01,9.21-38.44.05-3.51.1-7.01-.69-10.73-.85-2.15-1.32-4.38-3.89-5.39-1.29-.51-2.35-1.83-3.34-2.79-.53-.66-.61-1.04-.69-1.41-.16-.74.14-1.19.74-2.1.6-.9,1.65-1.51,2.32-2.04,4.57-4.46,7.1-9.26,7.73-15.61,1.29-8.81,1.45-17.39,1.53-26.34-.03-3.88-.14-8.13-.54-11.92l-.16-.74c-.31-1.49-1.6-1.99-2.81-2.13l-3.01.63c-2.93,1.01-5.95,1.64-8.43,2.94-16.46,7.74-32.31,16.51-47.54,26.32-2.1,1.22-3.91,1.99-6.01,3.21l-.67.53c-.38.08-.83-.21-1.29-.51l-.08-.37c-.16-.74.52-1.27,1.19-1.8,2.4-1.67,4.8-3.34,6.83-4.93,13.79-11.06,26.52-23.45,39.78-35.17,3.97-3.55,7.49-7.4,11.08-10.88,1.95-1.96,2.61-4.43,2.43-7.11.22-.82.06-1.57-.09-2.31-.39-1.86-1.54-3.56-2.6-4.89-4.34-5.69-10.55-9.04-17.06-11.94-.53-.66-1.74-.8-2.87-.56-2.26.48-4.6.58-6.86,1.06-4.52.95-8.58,2.2-12.33,4.93-5.1,3.79-10.58,7.66-15.68,11.46-6.45,4.85-11.91,10.66-17.37,16.47-5.92,5.52-10.55,11.54-13.74,18.81-.14,1.19-1.04,2.55-1.71,3.08-1.95,1.96-2.98,4.51-3.64,6.98-2.75,5.63-5.04,11.55-7.25,17.84-4.37,11.02-7.45,22.54-8.86,34.49-.63,6.35-.43,12.91.07,19.01l.39,1.86c.78,3.72,3.21,5.93,7.81,5.35,2.64-.55,4.97-.66,7.61-1.21,4.44-1.32,8.43-2.94,11.72-5.96.3-.45,1.05-.61,1.73-1.14,4.88-2.97,10.75-4.98,15.55-8.32,1.05-.61,1.73-1.14,2.86-1.38l1.13-.24c.83.21,1.21.13,1.37.88l.08.37c.08.37-.22.82-.6.9-5.79,2.38-10.14,6.02-13.95,10.32-2.54,2.87-5.09,5.73-8.16,7.93-2.02,1.59-3.52,3.85-5.01,6.1-3.8,6.24-7.97,12.55-11.77,18.79-1.49,2.26-2.9,4.88-3.94,7.43l-5.28,19.75c-.52,1.27-.58,2.84-.65,4.41-.2,2.76-.03,5.44-.32,7.83-.28,2.39-.27,4.33.2,6.56.47,2.23,1.39,4.75,2.62,6.83,2.92,6.38,8.76,11.75,17.8,9.84,1.13-.24,1.8-.77,2.93-1.01l3.01-.63c1.13-.24,2.34-.1,3.47-.34,3.39-.71,7-2.25,10.31-3.34,10.69-3.41,20.84-7.49,31.52-10.91.3-.45,1.05-.61,1.8-.77l2.26-.48s.38-.08.45.29c1.13-.24,1.58.05,1.82,1.17.08.37-.52,1.27-.89,1.35-3.69,1.16-6.92,2.62-10.07,4.45-2.86,1.38-5.71,2.76-8.64,3.76-11.2,4.69-22.71,9.83-32.69,16.59-8.71,5.33-16.35,11.99-21.64,20.48-3.5,5.79-5.04,11.55-4.16,17.58.01,1.94.41,3.8.34,5.36-.22.82-.06,1.57.02,1.94.39,1.86,1.46,3.19,2.9,4.44,1.44,1.25,2.81,2.13,4.17,3.01,1.36.88,2.2,1.09,3.18,2.05.91.59,1.36.88,1.52,1.62.08.37-.22.82-1.27,1.43-3.15,1.83-5.02,4.16-5.15,7.3.09,2.31.19,4.62.58,6.48.31,1.49.63,2.97,1.24,4.01,2.16,6.53,6.51,12.22,12.5,16.4,7.51,5.8,15.78,11.44,25.38,14.07,7.56,2.29,14.3,6.31,22.09,7.78.38-.08.83.21,1.29.51,3.86,1.52,7.64,2.66,11.58,4.55,5.6,2.32,11.64,2.99,17.74,2.09,1.51-.32,2.71-.18,4.22-.5,1.88-.4,3.69-1.16,5.33-2.68l.68-.53c1.13-.24,2.04.35,2.27,1.46.08.37-.22.82-.14,1.19-.22.82-.06,1.57.09,2.31.47,2.23,1.99,3.85,3.81,5.02,2.88,2.5,6.07,4.55,9.77,5.32,4.99,1.28,9.44,1.9,14.27,2.43,7.17.43,14.26.49,21.13,1.38,8.38.57,16.91,1.88,25.21,2.07,6.71.14,13.21,1.1,19.61-.24l3.01-.63c.75-.16,1.21.13,1.37.88.55,2.6,2.96,2.87,4.71,3.67,6.43,2.53,12.71,4.32,19.28,5.65,12.39,2.83,24.85,4.09,37.45,4.16,5.13.09,10.18-.2,15.31-.12,4.75.16,9.43-.04,14.4-.7,4.22-.5,8.44-1,12.74-1.13.38-.08.83.21.91.59l.08.37c.16.74-.52,1.27-.9,1.35-6.48.98-13.26,2.4-19.74,3.38-9.65.87-19.67,1.81-29.4,2.31-19.38,1.36-38.91,1.98-58.37,1.03-8.3-.19-16.22-.47-24.44-.29-13.73.17-27.75.79-41.41-.6-5.96-.3-11.92-.6-18.03.3-2.34.1-4.6.58-6.48.98-2.26.48-4.52.95-6.24,2.09-.75.16-1.43.69-1.8.77-1.88.4-2.87-.56-3.94-1.89-1.14-1.7-2.88-2.5-5-3.22-3.86-1.52-7.8-3.41-11.95-4.47-11.64-2.99-23.28-5.97-35.06-7.76-9.21-.78-17.76-4.03-26.89-4.44-4.38-.24-8.99-1.6-13.66-1.4-5.05.29-10.48.65-15.75,1.76l-3.39.71c-7.08,1.88-11.64,6.33-14.08,13.45-.14,1.19-.74,2.1-.88,3.29-.06,1.57-.74,2.1-1.49,2.26l-2.26.48c-2.26.48-3.99,1.62-5.56,3.5-6.14,6.34-11.74,13.34-16.06,20.86-2.83,5.25-4.37,11.02-3.04,17.34l.23,1.12c1.39,4.75,3.46,8.98,5.91,13.12.69,1.41,1.38,2.82,1.69,4.3.69,1.41,1,2.9,1.69,4.3-2.04-.35-3.4-1.23-4.31-1.81-2.05-2.29-5-3.22-8.17-3.33-4-.32-7.55-.35-11.31.44-5.27,1.11-9.85,3.63-14.12,7.63-1.05.61-2.02,1.59-2.7,2.12-5.46,5.81-10.62,11.17-11.7,19.16-.22.82-.9,1.35-1.65,1.51-7.53,1.59-13.3,5.91-18.47,11.27-6.14,6.34-12.35,12.31-18.49,18.65-1.27,1.43-2.54,2.87-2.98,4.51-.06,1.57-.66,2.47-1.79,2.71-.38.08-.75.16-1.21-.13-.46-.29-1.21-.13-1.58-.05-.75.16-1.13.24-1.8.77-3.99,1.62-7.97,3.23-11.42,5.51-8.79,4.96-16.74,10.13-25.45,15.45-5.26,3.05-11.27,6.26-17.06,8.64-.38.08-1.05.61-1.43.69-.38.08-1.21-.13-1.29-.51l-.08-.37c-.16-.74.52-1.27,1.19-1.8,1.65-1.51,3.37-2.65,4.72-3.71,18.6-14.4,35.75-30.05,52.83-46.07,2.62-2.49,5.24-4.99,6.95-8.07,2.09-3.16,2.97-6.45,3.77-10.11.14-1.19.74-2.1,1.87-2.33l1.88-.4c4.52-.95,7.81-3.98,11.11-7,7.27-6.58,12.26-14.62,17.17-23.03.52-1.27.66-2.47.8-3.66.21-2.76.33-5.89-.37-9.24l-.39-1.86c-2.32-7.28-5.77-14.32-10.94-20.22-13.55-15.79-27.02-31.2-42.43-44.66-.91-.59-1.07-1.33-1.6-1.99-.08-.37.22-.82.6-.9l-.08-.37q.38-.08.46.29c.46.29,1.29.51,1.74.8,7.21,6.25,15.02,11.59,22.91,17.31,4.71,3.67,9.79,7.26,15.46,9.95,4.39,2.18,8.49,4.82,12.8,6.63,4.85,2.47,9.99,4.5,15.14,6.52,1.29.51,2.49.64,3.62.4,1.51-.32,2.86-1.38,3.75-2.73,1.57-1.88,3.14-3.77,4.33-5.57,2.09-3.16,3.42-6.16,2.72-9.5-.23-1.12-.39-1.86-.92-2.52l-.16-.74c-.08-.37.14-1.19,1.19-1.8,5.49-1.93,8.32-7.19,12.21-11.11.3-.45.52-1.27.74-2.1.66-2.47.57-4.78.17-6.64-.39-1.86-.7-3.35-1.77-4.68-2.13-2.66-3.81-5.02-6.32-7.6-1.98-1.91-4.63-3.3-8.09-2.96q-2.34.1-3.34-2.79c-.39-1.86-1-2.9-2.45-4.15-4.25-3.38-8.8-6.3-13.64-8.78-3.03-1.3-5.9-1.86-9.37-1.52l-3.01.63c-2.64.55-4.82,1.4-6.76,3.37-.3.45-1.05.61-1.43.69-.75.16-1.21-.13-1.44-1.25-1.38-2.82-4.09-2.63-6.51-2.9-1.58-.05-3.47.34-5.35.74-8.21,2.12-15.72,5.64-22.47,10.94-3.37,2.65-6.67,5.68-7.77,9.79-.52,1.27-1.19,1.8-1.95,1.96-.38.08-1.21-.13-1.59-.05-1.58-.05-2.71.18-4.22.5-4.52.95-8.8,3.02-12.55,5.75-11.71,7.9-22.88,16.47-32.38,27.4-2.62,2.49-4.79,5.28-7.03,7.69-.3.45-.97.98-1.65,1.51,0,0-.75.16-.83-.21-.38.08-.53-.66-.61-1.04.97-.98,1.49-2.26,2.46-3.24,12.18-14.99,24.44-29.61,36.62-44.6,4.79-5.28,9.12-10.85,13-16.72,3.36-4.59,5.13-9.24,3.88-15.19-.31-1.49.28-2.39,1.63-3.45l2.03-1.59c2.48-1.3,4.05-3.18,5.38-6.18.74-2.1,1.85-4.27,2.14-6.66,1.92-5.84,2.7-11.44,3.79-17.5,1.24-5.31,1.35-10.38.26-15.59-.47-2.23-.94-4.46-2.16-6.53-.23-1.12-.01-1.94,1.04-2.55,3.37-2.65,5.46-5.81,5.73-10.14,1.16-5.68,1.87-11.66,1.75-17.84-.16-.74-.01-1.94-.17-2.68-.31-1.49-.92-2.52-1.61-3.93-1.08-3.27-3.13-5.55-4.51-8.37.3-.45.22-.82.52-1.27,4.65-4.08,6.56-9.92,6.89-15.82.57-4.78.76-9.48,1.32-14.26,1.12-11.5.73-22.68.27-34.23.14-1.2-.01-1.94-.25-3.05-.31-1.49-1.08-3.27-1.77-4.68-1.07-1.33-2.43-2.21-3.12-3.61l-.08-.37c-.31-1.49,1.87-2.33,2.39-3.61.66-2.47,1.32-4.94,1.53-7.7.49-5.15-.23-10.44-.5-15.43-.19-4.62-.83-9.53-1.77-14-.86-4.09-2.02-7.73-3.26-11.74-1.08-3.27-2.46-6.08-4.59-8.74.5-3.21,1.76-6.58,1.43-10.01.3-.45.14-1.19-.02-1.94-.34-5.36-1.06-10.65-2.16-15.86-.55-2.6-1.17-5.58-2.18-8.47-1.63-5.87-3.48-10.92-8.94-14.43-.53-.66-1.07-1.33-1.22-2.07-.08-.37-.16-.74.14-1.19,1.18-3.74.39-7.46-.39-11.18-2.58-12.27-7.05-24.15-13.4-35.62-2.6-4.89-5.42-8.95-11.24-10.45-1.21-.13-1.74-.8-1.9-1.54-.08-.37.22-.82.14-1.19.58-2.84.49-5.15.02-7.38-.63-2.97-2.01-5.79-3.76-8.53-1.07-1.33-2.13-2.66-3.28-4.36-4.2-6.88-10.05-12.25-16.2-17.17-4.17-3.01-8.26-5.64-13.1-6.17-3.33-.85-5.14-2.02-6.9-4.76l-3.43-5.1c-2.74-3.69-6.16-6.86-10.18-9.12-10.68-5.91-20.98-11.89-32.18-16.52-3.94-1.89-7.72-3.04-12.02-2.91-1.96.02-3.25-.48-5.07-1.65-3.87-3.46-8.8-6.3-13.57-8.41-5.6-2.32-11.12-4.26-16.64-6.2-13.24-4.98-26.48-9.96-40.09-14.86-7.19-2.37-14.53-5.49-21.79-8.23-.38.08-.83-.21-.91-.59l-.08-.37c-.16-.74.22-.82.6-.9.38-.08.75-.16,1.21.13,4.08.69,8.08,1.02,11.78,1.79,9.98,2.56,20.33,5.04,30.38,7.97,9.52,2.27,19.5,4.83,29.1,7.47,2.95.93,5.82,1.49,8.83.86,1.13-.24,2.18-.85,3.23-1.46l.75-.16c.75-.16,1.96-.02,2.87.56,2.43,2.21,5.38,3.14,8.63,3.62,3.7.77,7.03,1.63,10.65,2.03,12.77,2.75,25.16,5.58,37.93,8.33,3.7.77,7.78,1.47,11.62,1.05,3.01-.63,3.47-.34,4.47,2.55,1.38,2.82,3.06,5.18,5.41,7.02l5.46,3.51,32.51,19.95c4.47,2.55,5.3,2.77,11.26,3.07-.06,1.57.17,2.68.48,4.17.71,3.35,2.54,6.46,4.75,9.49,2.86-1.38,4.8-3.34,6.67-5.68,5.3-6.55,8.87-13.91,11.07-22.14.88-3.29,2.14-6.66,4.76-9.16,1.95-1.96,3.06-4.14,4.02-7.06l3.77-10.11c1.76-6.58,2.69-13.38,1.36-19.7-.86-4.09-2.48-8.02-5.67-12.01-1.07-1.33-2.29-3.4-3.36-4.73-4.12-6.51-8.54-12.57-14.02-18.02-8.75-9.81-18.55-19.01-27.9-27.91-.53-.66-1.14-1.7-1.68-2.37-.08-.37-.16-.74.14-1.19l1.13-.24,1.82,1.17c3.5,3.54,7.67,6.54,11.46,9.62,5.16,3.96,10.4,8.3,15.26,12.71,12,10.29,23.77,21.4,36.15,31.61,8.88,6.67,18.79,10.8,29,14.48,1.21.13,2.42.27,4,.32,7.09.06,14.48-.33,21.63-1.84,3.01-.63,6.24-2.09,9.18-3.1.75-.16,1.35-1.06,1.65-1.51,2.09-3.16,3.88-5.86,4.22-9.82-.16-.74.06-1.57,1.19-1.8.83.21.99.96,1.52,1.62l.08.37c4.67,9.11,10.69,17.17,17.69,24.24,7.23,8.19,16.11,14.86,25.58,20.63,3.56,1.97,7.64,2.66,11.64,2.99.46.29.83.21,1.21.13,1.13-.24,1.73-1.14,1.79-2.71,1.21-9.19,2.05-18.29.54-27.3-.01-1.94-.41-3.8.71-5.97,3.64-6.98,5.09-15.05,4.95-23.18.27-13.65.55-27.3-.77-41-1.08-12.59-2.61-25.47-4.44-37.9-1.89-10.86-3.11-22.26-5.38-33.04l-.47-2.23c-.16-.74-.01-1.94.74-2.1.38-.08.99.96,1.44,1.25.61,1.04,1.3,2.44,1.61,3.93,2.63,8.77,5.64,17.45,7.9,26.3,3.59,15.17,6.72,30.04,10.68,45.13,1.39,4.75,2.79,9.51,4.56,14.19.92,2.52,2.15,4.6,3.83,6.96,1.6,1.99,3.72,2.71,6.35,2.16,4.14-.87,7.44-3.9,10.89-6.18,4.13-2.81,7.42-5.83,7.83-11.36.14-1.19,1.19-1.8,1.95-1.96,1.21.13,2.34-.1,3.09-.26,4.14-.87,6.76-3.37,9.84-5.57,6.15-4.4,11.77-9.47,16.86-15.2,6.06-6.71,12.49-13.5,14.54-22.48.3-.45.97-.98,1.35-1.06l.75-.16c1.21.13,2.42.27,3.92-.05l1.13-.24c3.69-1.16,7.08-1.88,10.23-3.71,8.11-4.43,15.24-9.81,21.75-16.23,5.54-5.44,11.08-10.88,17-16.39,3.59-3.47,7.11-7.32,11-11.25,7.86-7.48,16.48-15.12,24.72-22.68l18.88-16.79c2.02-1.59,4.05-3.18,6.61-4.11.3-.45.97-.98,1.73-1.14.38-.08.83.21.91.59l.08.37c.23,1.12-.9,1.35-1.87,2.33-.97.98-2.32,2.04-3.3,3.02-8,8.68-16.01,17.35-23.71,25.57-12.49,13.5-24.23,26.85-36.81,39.98-7.78,7.85-15.57,15.7-22.9,23.85-5.46,5.81-10.01,12.2-14.19,18.52-3.58,5.41-5.95,10.96-7.41,17.09-.44,1.65-.96,2.92-2.46,3.24-.38.08-.83-.21-1.21-.13-.46-.29-.83-.21-1.21-.13-1.13.24-2.1,1.22-2.7,2.12-2.25,2.41-4.57,4.46-6.81,6.87-12.92,17.09-25.38,34.47-34.21,54.19-3.49,7.72-5.39,15.5-3.66,23.68.31,1.49.09,2.31-.88,3.29-8.62,7.64-13.37,16.8-15.78,27.79-1.16,5.68-2.7,11.44-4.24,17.2-1.02,4.49-2.04,8.97-1.4,13.89.31,1.49-.21,2.76-1.55,3.82-4.49,4.83-8.07,10.24-9.91,16.45-1.48,4.19-1.82,8.15-.96,12.24l.39,1.86c.94,4.46,4.5,6.43,8.74,7.87,2.04.35,3.62.4,5.13.08,1.51-.32,3.31-1.09,4.96-2.6,6.51-6.42,13.1-12.47,19.16-19.18,8.9-10.03,16.51-20.56,22.23-32.64.96-2.92,2.37-5.55,3.78-8.17.6-.9.89-1.35,1.65-1.51l.38-.08c1.29.51,2.42.27,3.54.03,2.26-.48,4.36-1.69,6.01-3.21,3.67-3.1,6.51-6.42,9.2-10.48,5.45-7.75,10.44-15.79,12.33-25.51.14-1.19.74-2.1,2.25-2.41,3.31-1.09,5.63-3.13,7.42-5.83,10.69-12.74,18.65-27.23,19.42-44.09.22-.82.06-1.57.28-2.39.14-1.19.36-2.02,1.79-2.71,4.96-2.6,9.76-5.94,13.2-10.16,8.9-10.03,16.97-20.27,23.14-32.05,1.93-3.9,3.94-7.43,5.95-10.96,4.62-7.96,9.23-15.92,10.07-25.03.3-.45.52-1.27.44-1.65.22-.82.82-1.73,1.57-1.88l.75-.16c3.39-.71,4.43-3.26,6.22-5.97,10.94-19,22.72-37.79,31.46-57.88.3-.45.52-1.27.82-1.73.22-.82.89-1.35,1.27-1.43.38-.08.75-.16.83.21l.16.74c.08.37.16.74-.14,1.19-.06,1.57-.58,2.84-1.1,4.11-5.29,17.81-10.96,35.7-16.64,53.6-3.97,12.88-8.03,25.38-12.99,37.3-.74,2.1-1.48,4.19-2.75,5.63-1.95,1.96-2.98,4.51-4.02,7.06-1.77,4.65-3.63,8.92-5.48,13.19-3.17,9.21-7.25,17.84-8.77,27.48-.44,1.65-.8,3.66-.49,5.15.16.74.31,1.49.85,2.15.08.37.53.66.61,1.04.16.74-.06,1.57-.74,2.1-2.03,1.59-2.61,4.43-4.63,6.02-4.13,2.81-6.81,6.87-8.66,11.14-.74,2.1-1.93,3.9-2.75,5.63-3.72,6.61-7.44,13.22-9.88,20.33-1.55,3.82-3.19,7.27-5.65,10.51-6.12,8.28-9.67,17.57-12.77,27.15-1.18,3.74-.85,7.17.01,11.26,1.77,4.68,3.21,5.92,8.04,6.46,2.79.19,5.13.09,7.84-.1.38-.08.83.21.91.59l.16.74q.08.37-.22.82c-2.4,1.67-4.35,3.63-6.75,5.3-2.78,1.75-5.85,3.95-7.94,7.11-2.83,5.26-4.82,10.72-5.23,16.25-.25,6.27.17,12,.67,18.11l.31,1.49c.23,1.12.92,2.52,1.99,3.85,1.14,1.7,3.34,2.79,5.68,2.69,2.71-.18,5.43-.37,8.06-.92,1.51-.32,3.31-1.09,4.74-1.77,3.91-1.99,7.81-3.98,11.35-5.88.6-.9,1.72-1.14,2.48-1.3,1.13-.24,1.88-.4,3.09-.26.45.29.83.21.91.59l.08.37c.16.74-.14,1.19-.89,1.35-.97.98-2.02,1.59-3,2.57-5.54,5.44-11.08,10.88-16.24,16.23-.97.98-1.57,1.88-2.17,2.79-4.04,5.12-6.78,10.75-8.62,16.96-1.18,3.74-2.37,5.55-2.06,7.04.24,1.12,1.98,1.91,7.12,3.94.46.29,1.29.51,1.66.43,2.87.56,5.21.46,7.84-.1,1.51-.32,2.63-.55,4.06-1.24,3.15-1.83,5.77-4.32,7.94-7.11s3.88-5.86,5.21-8.86c5.48-13.19,11.34-26.46,15.99-39.87,3.77-10.11,4.75-20.42,2.71-30.08-.55-2.6-1.02-4.83-1.86-6.99-.69-1.41-1.08-3.27-1.85-5.05-.16-.74.06-1.57,1.19-1.8l.38-.08c1.58.05,2.79.19,4.38.24.75-.16,1.21.13,1.96-.02.38-.08,1.05-.61,1.73-1.14,3.81-4.3,7.78-7.85,10.31-12.66,3.34-6.53,6.61-13.43,8.67-20.46,2.14-6.66,3.9-13.25,5.58-20.2,1.16-5.68,1.49-11.58.32-17.15-.17-2.68-1.17-5.58,2.43-7.11,1.43-.69,1.79-2.71,2.31-3.98,3.94-7.43,5.76-15.58,8.5-23.15,1.77-4.65,2.72-9.5,3.58-14.73,1.08-6.05,2.09-12.48,3.55-18.61,2.42-9.05,4.01-18.32,5.6-27.58,2.26-9.8,3.32-19.73,4-29.58.28-2.39.49-5.15-.06-7.75-.16-.74.6-.9.97-.98.75-.16,1.21.13,1.66.43l.62,2.97c.44,7.67.79,14.98,1.23,22.65.36,7.3.26,14.31-.21,21.4-.55,6.72-1.18,13.06-1.36,19.7-.57,14.1-1.52,28.28-3.67,42.32-2.01,12.85-3.2,25.91-5.59,38.84-.36,2.02-.27,4.33.12,6.19.47,2.23,1.69,4.3,3.67,6.22.53.66.99.96,1.44,1.25l.16.74c.16.74-.14,1.19-.52,1.27-3.61,1.54-4.87,4.91-6.2,7.91-1.41,2.63-2.37,5.55-4.24,7.88-1.49,2.26-1.78,4.65-1.98,7.41.02,1.94-.35,3.96-.71,5.97-4.9,19.67-9.73,39.72-16.21,59.33-1.26,3.37-2.97,6.45-2.86,10.7l2.64-.55c6.09-2.83,12.63-5.38,18.41-9.7,1.35-1.06,2.78-1.75,4.21-2.44,10.59-5.72,21.48-11.9,31.99-18,10.59-5.72,21.5-9.96,32.09-15.69l1.51-.32c3.31-1.09,6.54-2.54,9.32-4.29,3.15-1.83,6.76-3.37,10.15-4.08.75-.16,1.21.13,1.36.88l.08.37c.08.37-.22.82-.6.9ZM1154.2,283.7c-3.28-4.36-5.88-9.25-9.53-13.53-4.64-5.24-9.58-10.02-15.2-14.28-4.33-3.75-9.47-5.77-14.46-7.05-2.49-.64-5.36-1.2-8-.65-1.13.24-2.18.85-3.23,1.46-.3.45-.67.53-.67.53-.75.16-1.66-.43-2.12-.72-6.98-5.13-14.23-5.94-21.76-4.35l-3.39.71c-7.83,2.04-13.98,6.44-19.07,12.17-4.87,4.91-8.82,10.4-10.13,17.28-.74,2.1-1.56,3.82-2.83,5.26-5.32,4.61-7.99,10.61-9.75,17.2-1.1,4.11-1.75,8.52-2.85,12.64-.28,2.39.11,4.25.2,6.56l.16.74c.31,1.49,1.6,1.99,2.89,2.5,2.42.27,4.83.54,7.47-.02,1.51-.32,3.01-.63,4.36-1.69,3.53-1.91,7.81-3.98,11.72-5.96.97-.98,2.78-1.75,3.75-2.73,8.99-7.72,18.97-14.48,27.43-22.86,5.16-5.36,10.41-10.35,15.57-15.7,4.19-4.38,8.08-8.3,12.81-12.02.68-.53,1.73-1.14,2.4-1.67.38-.08,1.51-.32,1.58.05l.53.66c.08.37-.22.82-.22.82-.82,1.73-1.71,3.08-2.98,4.51-2.17,2.79-4.71,5.65-6.88,8.44-9.42,11.3-18.46,22.53-27.42,34.12-5.75,8.2-12.02,15.73-17.39,23.85-5.37,8.12-8.7,16.59-10.66,25.93-1.54,5.76-1.87,11.66-2.96,17.71-1.24,5.31-.82,11.05-.1,16.33.41,3.8,1.27,7.89,2.05,11.61s1.57,7.44,2.8,11.45c1.02,4.83,2.79,9.51,6.96,12.51.46.29.61,1.04.69,1.41.16.74.23,1.12.01,1.94-5.5,11.25-6.16,23.04-5.99,35.05,0,9.32.29,18.19.66,27.43.09,2.31.19,4.62.66,6.85.86,4.09,2.93,8.31,5.67,12.01.53.66.69,1.41.85,2.15l.24,1.12c-1.1,4.11-.99,8.36-2.55,12.19-1.26,3.37-1.76,6.58-2.64,9.88-1.26,3.37-1.01,6.43-.3,9.77.47,2.23,1.39,4.75,2.24,6.91,2.84,6,6.73,11.4,10.54,16.42,4.42,6.06,9.36,10.84,14.38,16,1.9,1.54,3.5,3.54,5.02,5.16l.16.74c.08.37.16.74-.14,1.19-3.48-1.6-7.04-3.57-10.23-5.61-5.54-3.88-11.29-6.94-17.35-9.55-1.29-.51-2.57-1.01-4.08-.69l-.75.16c-1.51.32-2.4,1.67-2.46,3.24.08.37-.22.82-.22.82l.47,2.23c1.1,5.21,1.44,10.57,2.61,16.15l.47,2.23c1.16,3.64,2.16,6.53,5.42,8.95.46.29.91.59,1.07,1.33.08.37.16.74-.14,1.19-.88,3.29-.71,5.97-.16,8.58,1.1,5.21,4,9.64,7.95,13.47,5.02,5.16,10.41,10.23,16.78,14.33,5.38,3.14,10.76,6.28,17.32,5.67.83.21,1.58.05,2.34-.1,4.14-.87,6.69-3.74,7.41-7.77.28-2.39.11-5.07-.36-7.3l-.47-2.23c-.55-2.6-.56-4.54.93-6.8,1.33-3,1.46-6.13,1.13-9.56-.25-3.05-.5-6.11-1.12-9.08l-.71-3.35c-.86-4.09-2.47-8.02-5.6-11.64-.61-1.04-1.07-1.33-1.14-1.7-.16-.74.52-1.27,1.41-2.63,5.01-6.1,10.01-12.2,11.38-20.65-.01-1.94.35-3.96.33-5.9-.24-1.12-.47-2.23.05-3.51,3.12-5.71,3.38-11.97,2.13-17.92-.31-1.49-1.08-3.27-1.39-4.75-4.4-13.44-12.86-23.7-23.03-32.82-1.44-1.25-3.1-1.68-4.25-3.38-.08-.37-.16-.74.14-1.19-.16-.74.6-.9,1.35-1.06,2.2,1.09,5.07,1.65,7.26,2.74,2.12.72,4.45.62,6.34.22l1.88-.4c3.69-1.16,6.39-3.29,6.66-7.61,1.89-9.72,3.77-19.43,5.21-29.44,1.07-7.99,1.39-15.83.12-23.71l-.31-1.49c-.71-3.35-2.07-4.22-6.45-4.47-1.21-.13-2.41-.27-3.54-.03-1.88.4-3.61,1.54-5.41,2.3-5.49,1.93-10.53,4.16-16.02,6.09-.38.08-1.13.24-1.58-.05l-.08-.37c-.16-.74.14-1.19.52-1.27,2.7-2.12,4.87-4.91,7.11-7.32,4.79-5.28,8.66-11.14,11.71-17.22,2.31-3.98,4.32-7.51,7.99-10.61,3.67-3.1,5.45-7.75,8.13-11.81,1.19-1.8,1.93-3.9,2.67-6,2.89-6.82,3.66-14.36,2.17-21.43-.31-1.49-.7-3.35-1.39-4.75-.55-2.6-1.39-4.75-1.94-7.36-.23-1.12-1.14-1.7-1.38-2.82-.08-.37-.16-.74.52-1.27.3-.45.68-.53,1.05-.61,1.13-.24,2.42.27,3.62.4,1.66.43,3.33.85,5.29.83l1.51-.32c2.26-.48,4.36-1.69,5.02-4.16.22-.82.36-2.02.96-2.92l6.83-23.57c.22-.82.52-1.27.36-2.02l-.16-.74c-.83-.21-1.59-.05-2.34.1-1.13.24-1.88.4-2.93,1.01-15.42,5.19-30.46,12.24-45.03,19.58-1.43.69-3.23,1.46-4.66,2.15-.75.16-1.96.02-2.57-1.01-.16-.74.06-1.57.82-1.73,1.35-1.06,2.7-2.12,4.13-2.81,5.63-3.13,10.36-6.84,15.54-10.26,8.63-5.7,15.66-13.39,23.23-20.42,1.35-1.06,2.17-2.79,3.52-3.85,3.75-2.73,5.98-7.08,7.91-10.99.82-1.73,1.18-3.74.87-5.23-.24-1.12-.39-1.86-.92-2.52ZM1047.96,643.92c-2.88-2.5-4.41-4.12-5.54-3.88-1.51.32-2.25,2.41-3.8,6.24-.52,1.27-1.04,2.55-1.48,4.19-.22.82-.44,1.65-.36,2.02.24,1.12,1.07,1.33,2.65,1.38,2.26-.48,4.6-.58,6.48-.98,2.64-.55,5.19-1.48,7.22-3.07-1-2.9-3.28-4.36-5.17-5.9ZM1141.11,692.27c2.12.72,4.08.69,6.04.67,1.88-.4,3.47-.34,5.29.83,5.3,2.77,11.11,2.32,16.99,2.25l-.16-.74c-4.39-2.18-8.49-4.82-12.96-7.37-2.2-1.09-4.99-1.28-7.48-1.92-2.87-.56-5.43.37-7.84.1-2.79-.19-4.77-2.1-7.56-2.29-1.96.02-4-.32-5.96-.3l-2.64.55c5.54,3.88,10.84,6.65,16.28,8.22ZM1191.59,330.59c-.83-.21-1.58-.05-1.96.02-1.51.32-2.1,1.22-2.46,3.24-.44,1.65-.5,3.21-.57,4.78l.39,1.86c3.53-1.91,7.06-3.82,9.98-6.76-1.22-2.07-3.34-2.79-5.38-3.14ZM1279.56,313.23c-.69-1.41-1.68-2.37-2.29-3.4-2.13-2.66-3.95-3.83-6.59-3.27-.75.16-1.8.77-3.23,1.46-6.23,4.03-7.12,5.38-6.09,12.16-.22.82-.06,1.57.02,1.94,2.49,9.96,10,15.76,20.04,16.75l.75-.16c.75-.16.97-.98,1.19-1.8.11-5.07-.23-10.44-1.25-15.27-.62-2.97-1.55-5.5-2.55-8.39ZM1341,386.51c-4.25-3.38-8.78-4.36-13.68-3.33-1.13.24-2.18.85-3.31,1.09-1.51.32-2.4,1.67-2.84,3.32-.5,3.21-1.38,6.5-1.51,9.64.07,9.69-1.44,19.33-3.32,29.05-.94,4.86-1.43,10.01-1.92,15.16l.24,1.12c.23,1.12.77,1.78,1.76,2.74,4.19-4.38,7.93-9.05,11.58-14.09,5.59-8.94,10.27-18.47,14.12-28.21,1.85-4.27.99-8.36.96-12.24l-.24-1.12c-.23-1.12-.85-2.15-1.83-3.11Z"/>
            <g>
                <path class="cls-1"
                      d="M655.73,472.43c.38-1.14.38-2.28.38-3.42,0-3.04-.76-6.46-2.28-9.5-.76-1.9-2.28-3.04-4.18-3.04h-.76c-6.46,1.14-12.92,2.66-18.62,6.46-1.9,1.14-3.42,3.04-4.18,5.32-2.28,5.7-2.66,11.4-2.66,17.1v12.54c0,6.08,1.14,11.78,4.18,17.1.76,1.14.76,2.28.76,3.42s0,1.9-.38,3.04c-1.9,5.32-2.66,11.02-3.8,16.72-.38,2.28-.76,4.94-.76,7.22,0,1.52.38,3.04.38,4.56.38,1.9.76,3.42,1.9,4.56,1.14.76,1.9,1.14,3.04,1.14.76,0,1.52-.38,2.66-.76.76-.76,1.52-1.52,2.28-1.9.76-.76,1.52-2.28,2.66-2.28,0,0,.38,0,.76.38.38,0,.38.38.38.76,0,.76-1.14,2.28-1.52,3.42-4.94,10.26-9.12,20.52-11.4,31.92-.76,2.66-.76,5.32-.76,7.6s0,4.56.38,6.46c.76,4.18,2.28,7.98,3.8,11.78.38,1.14,1.52,1.9,2.28,3.04.38.38.76.38,1.14.38.76,0,1.52-.38,1.9-1.14s.76-1.52.76-2.28c.76-5.7,2.66-11.02,4.56-16.34,1.52-5.7,3.42-10.64,4.94-15.96,1.14-3.8,2.66-7.22,3.8-10.64.76-1.9.76-4.18,3.42-4.56,0,.38.38.76.38,1.14,0,1.52-.76,2.66-1.14,3.8-1.52,5.32-2.28,11.02-3.04,16.34-.76,7.98-1.52,15.58-1.52,23.18,0,8.36.76,16.72,2.28,25.08,1.14,7.22,3.04,14.06,7.22,20.14.38.38.76.76.76,1.52,0,.38-.38.76-.38,1.14-1.14,1.52-1.9,3.04-3.04,4.56-7.98,10.64-14.44,21.66-19.76,33.82-4.18,9.88-7.6,20.14-11.02,30.4-1.9,4.94-2.66,9.88-2.66,14.82,0,5.7,1.14,11.4,3.04,17.1,1.14,3.04,1.52,5.7,1.52,8.36,0,1.9,0,4.18-.76,6.08-1.9,8.74-3.04,17.48-4.94,25.84-1.9,9.88-2.66,19.76-3.42,29.64-.38,3.42-.38,7.22-1.14,10.64-.76,3.8-1.14,7.98-1.52,11.78-.38,1.52-.38,3.04-1.52,3.8-.38.38-.76.38-1.14.38s-.76-.38-.76-.38c-.38-1.9-.76-3.8-.76-5.32-.76-7.22-.76-14.44-1.52-21.66-.76-6.46-1.9-12.92-3.04-19.38-1.52-8.36-3.04-16.72-4.18-25.08-.76-3.8-1.52-7.6-2.66-11.4-.38-1.52-.76-3.42-.76-4.94,0-2.28.76-4.56,1.52-7.22,2.28-6.08,3.42-12.54,3.42-19.38v-2.66c-.38-5.7-2.28-10.64-3.8-15.58-3.8-9.88-7.22-20.14-11.78-29.64-4.56-10.26-10.26-19.76-16.72-28.5-1.14-1.52-1.9-2.66-3.04-3.8-.76-1.14-1.52-2.28-1.52-3.42,0-.76.38-1.52,1.14-2.66,3.8-6.84,5.32-14.44,5.32-22.42,0-9.5.38-19.38.38-29.26,0-2.28,0-4.94,1.9-7.6.76,2.66,1.14,4.94,1.14,7.22.76,9.12,3.04,17.86,4.18,26.6.38,2.66,1.52,4.94,2.66,6.84h.38c1.52,0,1.9-1.14,2.28-1.9,4.56-7.6,8.36-15.58,9.88-24.32.38-1.14,0-2.28.76-3.04,1.9-2.28,1.9-4.94,1.9-7.98v-2.66c0-7.22-.38-14.44-.76-21.66-.38-3.04-.76-6.46-1.9-9.12-.38-1.14-.38-2.28-.38-3.04s0-1.9.38-2.66c1.9-4.94,3.04-10.26,3.04-15.2,0-2.66-.38-5.32-.76-7.98,0-.38-.38-.76-.76-.76s-.76,0-1.14.38c-.76.76-1.9,1.9-2.66,3.04-3.8,4.94-8.36,9.12-12.54,13.68-.38,0-.38.38-.76.76h-1.14c-.38-.38-.38-1.14-.38-1.14,3.42-5.32,5.7-11.02,7.98-16.72,1.14-2.66,2.66-4.94,3.04-7.98,1.52-5.7,3.8-11.02,6.08-16.72,1.14-3.04,1.9-6.46,3.04-9.5.38-1.9.76-3.8.76-5.32,0-7.6-.38-14.82-1.52-22.04-1.14-6.08-4.18-11.02-10.64-13.3-4.18-1.14-8.36-2.66-12.54-3.8-.76,0-1.52-.38-1.9-.38-2.66,0-4.18,1.52-4.94,4.56-.76,2.66-1.52,4.94-1.52,7.6v1.9c.38,4.18.76,8.74,2.66,12.54.38.76.38,1.52.38,2.28s0,1.14-.38,1.9c-5.7,9.12-6.08,19.38-6.84,30.02,0,3.04,0,6.46-.38,9.88,0,1.14,0,1.9-.38,3.04,0,.76-.76.76-1.14.76-.76,0-1.52-.38-1.52-.76-.38-3.04-1.14-6.08-1.14-8.74-.38-9.88-2.28-19.38-3.04-29.26-1.14-10.64-4.18-20.9-7.6-31.16-3.04-9.12-7.6-17.1-14.06-23.94-.38-.76-.76-1.14-.76-1.52,0-.76.38-1.14.76-1.52,6.46-4.94,9.12-12.16,12.54-19.38.38-1.14.76-2.66.76-3.8v-3.04c0-8.74,1.14-17.48,2.28-25.46,0-1.52.38-3.04.38-4.56,0-3.04-.76-6.08-2.66-8.74-.38-.38-.38-.76-.38-1.14s0-.76.38-1.14c5.7-6.08,7.22-14.44,9.5-22.04,4.18-13.68,7.98-26.98,11.78-40.66,1.14-4.94,2.28-10.26,4.56-14.82.38-1.14.76-2.28,1.52-3.04,0-.38.76-.38,1.14-.38s.38.76.38,1.14v1.14c-3.04,11.02-3.42,22.42-4.56,34.2-.76,9.12-1.14,18.24-1.9,27.36-.38,5.7-.76,11.02-.76,16.72,0,3.8.38,7.98.38,11.78.38,3.04,1.14,6.08,2.28,8.74.76,1.14,1.14,1.9,1.14,3.04,0,.38-.38,1.14-.38,1.9-.38,2.66-.76,5.32-.76,7.98,0,4.94.76,10.26,1.9,15.2.38,3.42,3.04,6.08,4.94,8.36,1.52,1.9,3.8,2.66,6.46,2.66h1.14c4.18-.76,8.36-1.9,11.4-4.94,5.32-4.56,10.26-9.5,13.68-15.58.38-1.14.76-1.9,1.52-2.66.38-.38.76-.38.76-.38q.76,0,1.14.38c.76.76,1.14,1.52,1.52,1.9,3.04,6.08,7.98,11.02,12.92,15.96,2.66,2.66,6.46,4.18,10.26,4.94,1.14.38,1.9.38,3.04.38,3.42,0,6.08-1.52,8.36-4.94,3.42-4.18,3.8-9.12,4.56-13.68.38-2.28.38-4.94.38-7.22,0-3.04,0-6.08-.76-9.12v-1.14c0-1.14.38-1.9.76-3.04,1.52-3.42,2.28-6.46,2.28-9.88.38-3.8.38-7.98.38-11.78,0-7.22-.38-14.06-1.14-21.28-.76-7.98-1.14-16.34-1.9-24.7-.38-5.7-.76-11.78-1.52-17.48-.76-4.56-.76-9.5-2.66-14.06v-1.14c0-.38.38-.38.76-.76l.38-.38q.38,0,.38.38c.38.76.76,1.14,1.14,1.52,1.14,3.8,2.66,7.6,3.8,11.4,3.04,10.64,5.7,21.66,8.74,32.3,2.66,8.36,5.32,17.1,7.98,25.46,1.14,3.42,2.66,6.84,4.94,9.5.76.76,1.14,1.52,1.14,2.28,0,.38,0,1.14-.38,1.52-1.9,1.9-2.28,4.18-2.28,6.84v1.9c0,2.66.38,5.32.76,7.98.76,7.22,1.52,14.82,1.9,22.42,0,1.52,0,3.04.38,4.18,2.66,7.6,5.32,14.82,11.78,20.14.38.38.76.76,1.14.76.38.38.76.76.76,1.52,0,.38-.38.76-.76,1.14-7.22,7.22-11.4,15.96-14.82,25.46-4.18,12.16-6.84,24.32-7.98,37.24-.76,9.5-1.9,19.38-2.66,28.88-.38.76-.38,1.52-.76,1.9,0,.38-.76.76-1.14.76h-.38c-.76,0-1.14-.38-1.14-.76-.38-1.9-.38-3.42-.38-5.32-.76-6.84-.76-13.68-1.52-20.14-.76-6.08-2.28-11.4-4.94-16.34-.76-1.14-.76-1.9-.76-3.04,0-.76,0-1.52.38-2.66,1.14-3.04,1.9-6.46,2.28-9.88ZM605.95,644.96c0-1.9,0-3.42-.38-5.32,0-3.8-.76-7.22-1.14-10.64,0-.38-.76-1.14-1.14-1.14h-.38c-.38,0-.76,0-1.14.38-1.14.76-1.9,1.9-2.66,3.04-4.56,7.22-8.36,14.44-10.26,22.8-.38,1.14-.38,2.66-.38,3.8,0,2.66.38,4.94,1.52,7.22,1.9,4.56,3.8,8.74,5.7,13.3.38,1.14.76,2.28,1.52,3.04.38.38,1.14.76,1.52.76h.38c.38,0,.76-.38.76-.76.38-1.14.76-1.9.76-3.04,1.52-7.22,3.04-14.44,4.18-21.66,1.14-3.8,1.14-7.98,1.14-11.78ZM621.53,663.96h-.38c-1.9,0-2.66,1.9-3.8,3.8-2.66,4.56-4.18,9.88-5.32,14.82-1.14,3.42-1.52,7.22-1.52,11.02,0,2.28.38,4.94.38,7.6,0,.38,0,1.14.76,1.52h.38c.76,0,1.14-.38,1.52-.76.38-.76,1.14-1.14,1.14-1.52,3.42-5.7,6.84-11.78,9.5-17.86.76-2.66,1.14-4.94,1.52-8.36-.38-1.52-.76-3.8-1.52-5.7-.38-1.9,0-4.56-2.66-4.56Z"/>
                <path class="cls-1"
                      d="M802.79,631.66c-2.66-6.46-4.94-12.92-7.22-19.38-.38-.76-.76-1.52-1.9-3.04-.76,3.42-1.52,5.7-1.9,7.98-3.42,14.82-7.6,29.64-12.54,44.08-2.66,8.74-6.84,16.72-11.78,23.94-.38.76-.76,1.14-1.52,1.14h-.38c-.76-.38-.76-.76-.76-1.52v-1.14c.38-1.52.76-3.04,1.52-4.56,3.8-8.36,4.56-17.1,4.56-26.22v-14.82c0-5.7-.76-11.02-3.42-15.96-.38-1.14-.38-1.9-.76-3.04-.76-3.8-2.28-7.22-4.94-10.26-.38-.38-.38-1.14-.38-1.52,0-.76,0-1.14.76-1.9,2.28-2.28,2.66-4.94,2.66-7.6,0-8.74-1.9-16.72-5.32-24.32-1.14-2.66-2.28-5.7-3.8-8.36-.76-1.52-1.9-3.04-3.04-4.56-.76-1.52-1.52-1.9-2.66-1.9-.76,0-1.9.38-3.04.76-3.42,1.14-6.46,3.42-9.5,5.7-1.52,1.14-3.04,2.28-4.94,3.42,0,0,0,.38-.38.38l-.38-.38c-.38,0-.38-.38-.38-.76s0-.38.38-.76c1.9-1.9,3.8-3.8,6.08-5.7,4.56-3.42,5.7-8.36,5.7-13.68s-1.52-10.26-3.04-15.2c-3.04-11.02-7.6-21.28-12.54-31.54-.38-1.14-1.14-1.9-1.9-3.04-.38-.38-.76-.38-1.14-.38s-.76.38-.76.76v2.66c0,2.28,0,4.18.38,6.08.38,3.8,1.14,7.6,2.28,11.4.38,2.66,1.14,5.7,3.42,7.98.76.38.76.76.76,1.52,0,.38,0,.76-.76,1.52-2.28,2.66-3.04,6.08-3.04,9.12v2.66c.38,4.56.38,9.12.38,13.68,0,6.08,0,11.78.76,17.86.76,4.94.76,9.88,1.9,14.82,1.9,10.64,3.8,13.3,9.88,19-1.14,3.42-1.9,6.46-1.9,9.88,0,6.46,2.66,12.54,6.84,18.62,1.14,1.52,2.66,2.66,4.18,3.8.76.38,1.14,1.14,1.14,1.52s0,1.14-.38,1.52c-.76,1.14-.76,2.66-1.14,4.56,0,5.7.38,11.78,1.9,17.48l3.42,14.82c.76,3.04,1.52,6.46,3.04,9.5,1.52,4.18,3.42,7.98,4.94,12.16,1.14,1.52,1.9,3.8,3.04,4.94,1.9,1.52,1.9,3.42,1.9,5.32-.38,7.6-.76,15.58-1.14,23.18v2.66c0,3.04.38,5.7,1.14,8.74.38,2.28,1.14,4.56,2.28,6.46.76,1.14,1.14,1.9,1.14,2.66s0,1.14-.38,1.9c-3.04,5.7-4.56,11.78-5.7,18.24-.38,3.04-1.14,6.08-1.9,9.12-3.04,9.12-4.18,18.62-4.94,28.12-1.52,14.44-2.66,28.88-4.18,43.32,0,1.9-.76,3.04-1.52,3.04h-.38c-1.14-.38-1.14-1.9-1.14-3.04,0-6.46-1.52-12.92-2.28-19.38-1.52-10.26-3.04-20.14-4.94-30.02-2.66-14.82-6.08-29.64-11.4-43.7-.38-.76-.38-1.14-.76-1.9-.76-1.52-1.9-3.04-2.28-4.94v-.38c0-1.52,2.28-1.9,3.04-3.8,1.14-2.28,1.9-4.56,1.9-7.22,0-3.8.38-7.22.38-11.02s-.38-7.6-1.52-11.02v-1.9c0-3.42-.76-7.6-1.14-11.02,0-7.6-1.52-14.82-3.8-21.66-1.9-6.08-5.32-11.78-8.74-17.1-1.52-2.66-3.8-4.94-6.84-6.46-.76-.38-1.14-1.14-1.14-1.9,0-.38,0-.76.38-1.14,1.52-3.04,1.9-6.08,1.9-9.5v-2.66c0-1.14-.38-1.9-.38-3.04.38-1.14.38-1.9.38-3.04,0-3.04-1.14-6.08-2.66-9.12-1.9-4.56-3.8-9.5-5.32-14.44-.38-1.14-.38-2.66-1.9-3.8-1.52,2.28-1.9,4.94-3.04,7.22-1.14,2.66-1.9,5.32-3.04,7.98-.76,1.9-1.52,4.18-2.28,6.08-.38.38-1.14.76-1.52.76s-1.14-.76-1.14-1.14v-3.42c1.52-8.74,2.28-17.1,2.28-25.84,0-3.42.38-7.22.76-10.64v-3.04c0-2.28-.38-4.56-1.9-6.46-.38-.76-.76-1.52-.76-2.28,0-1.14.38-1.9,1.14-2.66,1.14-1.9,1.52-4.18,1.52-6.08s.38-4.18.38-6.08c0-7.22-1.14-14.06-1.9-20.9-1.14-7.6-3.42-15.2-7.6-21.66-1.14-2.28-2.66-4.18-4.18-6.08-.76-1.14-1.14-1.52-1.14-2.28s.38-1.52,1.14-2.28c6.08-5.32,7.98-12.54,8.36-20.52v-3.8c0-4.18-.38-7.98-1.52-12.16-3.04-11.78-7.22-23.18-13.3-33.44-3.42-6.08-5.7-12.92-9.12-19-.76-1.52-1.9-3.04-1.9-4.94,0-.76.38-1.14.38-1.9,3.8,2.66,7.22,6.08,9.88,9.5,3.04,3.04,5.7,6.08,8.74,8.74.76.38,1.14.76,1.52.76.76-.38.76-.76.76-1.14v-.76c-1.14-8.36-1.9-16.72-2.28-25.08v-4.94c0-7.98.76-15.58,1.9-23.56,0-1.9.38-3.8.38-6.08,0-3.04,0-6.46-2.28-8.74-.38-.38-.76-1.14-.76-1.52,0-.76.38-1.14.76-1.9,3.42-3.04,4.94-7.22,6.08-11.4,3.42-10.64,6.46-20.9,9.5-31.54,2.66-8.74,4.56-17.48,7.22-26.22,1.14-3.8,2.66-7.22,3.8-10.64.38-.38.76-.38,1.14-.38h.38q.38,0,.38.38v.76c0,.76,0,1.9-.38,2.66-.38,2.28-1.14,4.18-1.52,6.46-1.14,11.4-2.66,22.42-3.04,33.82-.38,7.22-1.14,14.44-1.52,21.66-.38,4.18-.38,8.74-.38,12.92,0,4.56,0,8.74.38,13.3,0,2.66.76,5.7,1.9,8.36.76,1.14,1.14,2.28,1.14,3.8,0,.38-.38,1.14-.38,1.9-.38,2.66-.76,4.94-.76,7.6,0,5.32,1.14,10.26,2.28,15.58.38,3.42,3.04,6.08,4.94,8.36,1.52,1.52,3.42,2.28,5.7,2.28s4.56-.76,6.08-2.28c4.56-4.56,8.74-9.12,12.92-13.68.38-.76,1.14-1.52,1.9-1.9.38-.38.76-.38,1.14-.38s.76,0,.76.38.38,1.14.38,1.52c-.76,1.52-1.9,3.04-2.66,4.56-3.42,4.94-6.84,9.5-9.5,14.82-1.14,2.28-1.52,4.56-1.52,7.22v2.28c.38,4.56,1.14,8.74,2.66,12.92,2.66,6.84,5.7,13.68,9.88,19.76,1.14,2.28,2.28,3.42,3.8,3.42,1.14,0,1.9-.38,3.42-1.14,4.18-1.52,7.6-4.56,10.26-7.98,1.14-1.52,2.28-3.04,3.8-4.56.38-.38.76-.38,1.14-.38h.38q.38,0,.38.38t-.38.76c-1.9,2.66-3.42,4.94-5.32,7.6-3.04,4.94-6.08,9.88-8.36,15.58-.38,1.52-.76,3.04-.76,4.56s.38,3.04.76,4.56c2.66,9.12,6.84,17.1,11.02,25.08.76,1.52,1.9,2.66,2.66,4.18.76,1.14,1.14,1.52,1.9,1.52.38,0,1.14-.38,2.28-1.14,1.9-1.9,3.04-4.18,3.42-6.84,1.52-6.46,3.04-12.92,3.42-19.38.76-6.08,1.14-12.16,1.14-18.24,0-7.6-.76-15.58-1.52-23.56-1.14-13.3-6.46-25.08-13.68-36.1-2.28-3.42-4.18-6.46-6.46-9.5v-.76q0-.38.38-.76c.38-.38.76-.76,1.52-.76l.76.38c2.66,2.66,4.94,5.32,7.6,8.36,2.28,2.28,4.56,4.94,6.84,7.22,1.52,1.52,3.8,2.28,5.7,2.28,2.66,0,5.32-1.14,7.22-3.8,4.18-5.32,4.56-6.46,5.32-13.3.38-3.04.76-5.7.76-8.36s-.38-5.32-.76-7.98v-1.52c0-1.52.38-3.04.76-4.56,2.28-4.94,2.28-10.26,2.66-15.2v-4.18c0-8.74-.76-17.86-1.52-26.22-.38-6.84-1.14-13.68-1.52-20.52-.38-8.36-1.9-16.72-2.66-25.46,0-1.52-.76-3.04-1.14-4.56,0-1.14-.38-2.28-.38-3.42,0-.38.38-.76.38-.76h1.14l1.14,2.28c1.52,3.42,2.66,7.22,3.8,11.02,3.04,11.78,6.46,23.56,9.88,35.34,1.9,6.84,4.18,13.68,6.08,20.52,1.14,3.8,2.66,7.6,5.7,10.64.76.76,1.14,1.52,1.14,2.28,0,.38,0,.76-.38,1.14-1.9,1.9-2.66,4.56-2.66,6.84l.38,3.8c.38,4.94.76,9.88,1.52,14.82.38,3.8.76,7.6.76,11.4,0,4.56-.38,9.12-.76,13.68-.38,6.46-1.14,12.92-1.9,19.38.38.38.76.38,1.14.38.76,0,1.52-.38,1.9-.76,2.66-2.66,4.94-5.32,7.6-7.98l9.88-9.88c.38,0,.76.38.76.38v1.14c-.38,2.28-1.14,4.56-2.28,6.84-4.56,9.12-9.5,18.24-14.06,27.74-4.18,8.74-6.84,18.62-8.74,28.12-1.14,4.18-.76,8.36-1.14,12.54,0,3.8,1.52,7.22,3.04,10.26,1.52,2.66,3.42,5.32,4.94,8.36.76,1.14,1.14,1.9,1.14,2.28,0,.76-.38,1.52-1.52,2.66-2.66,3.04-5.7,6.08-7.6,9.88-2.66,5.7-3.8,11.4-4.18,17.86l-1.14,13.68c-.38,2.28-.38,4.94-.38,7.22,0,3.8,0,7.22.38,10.64.38,7.6,1.14,15.2,1.52,23.18.38,1.14.38,2.66.38,4.18,0,7.6,0,15.2,1.52,22.42.38,1.52.38,3.42.38,4.94v.76c0,.76-.38,1.14-1.14,1.52h-.38c-.76,0-1.14-.38-1.14-1.14-.76-1.52-1.14-2.66-1.52-4.18Z"/>
                <path class="cls-1"
                      d="M938.82,406.69c.38-2.28.38-4.94.38-7.22,0-3.04,0-5.7-.76-8.74v-1.14c0-1.14,0-1.9.38-2.66,1.9-3.42,2.66-7.22,2.66-11.02s.38-7.98.38-11.78c0-6.84-.38-13.68-1.14-20.52-.76-8.36-1.14-16.72-1.9-25.08-.38-5.7-1.14-11.4-1.52-17.1-.76-4.56-.76-9.5-2.66-14.06v-1.14c0-.38.38-.38.76-.76l.38-.38c.38,0,.38.38.38.76,2.66,3.8,3.8,8.36,4.94,12.54,3.04,12.16,6.46,24.32,9.88,36.48,2.28,6.84,4.56,14.06,6.84,20.9,1.14,3.8,2.28,7.22,5.32,9.88.38.76.76,1.14.76,1.9s-.38,1.14-.76,1.9c-1.52,1.9-1.9,4.18-1.9,6.46v2.66c0,2.28.38,4.94.76,7.6,1.14,7.6,1.52,15.2,1.52,22.8,0,3.8,0,7.98-.38,11.78l-2.28,18.24c-.38,2.28-1.14,4.18-2.28,6.08-3.42,5.32-5.7,11.4-7.22,17.48-.38,2.28-.76,4.94-.76,7.22s.38,4.56,1.9,6.84v.76c0,.76-.38,1.52-.76,1.9-.38.76-1.52,1.14-1.9,1.9-5.32,5.32-9.5,11.02-13.68,16.34-3.42,4.56-6.84,8.74-10.26,12.92l-2.66,2.66c-3.42,2.66-6.46,4.94-9.88,7.22-1.14.76-2.66,1.9-4.18,1.9-.76,0-1.14-.38-1.14-.76v-.38l3.42-6.84c3.42-5.7,5.7-11.78,7.6-18.24.38-.38.38-1.14.38-1.52v-8.36c0-2.28,0-4.94-.76-7.22-.38-1.14-.76-2.66-1.52-3.8-1.9-3.04-3.04-6.46-4.56-9.5-2.28-4.94-5.32-9.12-9.5-12.16-1.9-1.52-3.8-2.28-5.7-2.28s-3.8.76-6.08,2.28c-3.42,1.9-4.94,4.94-6.84,7.98-3.8,6.08-6.84,12.54-6.84,19.76v1.52c0,.76.38,1.14.38,1.9v3.04c0,3.42-.38,6.08-1.52,9.5-1.52,3.8-2.28,7.98-2.28,12.16,0,1.52,0,3.04.38,4.56.38,4.56.38,8.74.76,13.3.38,6.08,1.52,12.16,3.8,17.86.38,1.14.76,2.28.76,3.42,0,.76,0,1.52-.38,2.28-.76,1.9-.76,4.18-1.52,6.46-1.14,3.04-1.52,6.08-1.52,9.12,0,1.52.38,3.04.38,4.56.38,3.42.76,6.84,1.14,10.64.76,4.56,2.66,9.12,6.46,12.16,1.14,1.14,1.52,1.9,1.52,3.04,0,.38,0,1.14-.38,1.9-1.52,3.8-2.28,7.6-2.28,11.4,0,6.08,1.9,11.78,4.94,17.86,1.52,3.04,3.8,5.32,5.7,8.36.76,1.14,1.52,2.66,2.66,2.66,1.9,0,4.18-.38,5.7-1.9.76-1.14,1.9-2.28,2.28-3.42,1.9-4.56,4.18-9.12,4.56-14.06,0-2.28,0-4.18.38-6.08,0-1.52,0-3.04-1.14-4.56-.76-.76-1.52-1.14-1.52-1.9,0-.38.38-.38.38-.76.38-.76,1.14-1.52,1.9-2.28,4.56-4.18,7.6-9.88,9.5-15.96,1.14-3.42,1.52-6.84,1.52-10.26,0-6.08-1.52-11.78-5.32-17.1-1.52-2.28-3.04-4.18-5.7-4.94-2.66-1.14-5.7-2.28-8.74-2.66-5.32-.38-11.02-1.14-16.34-1.52-.76-.38-1.14-.76-1.52-1.14v-.76c0-.38.38-.76.76-1.14,1.14-.38,1.9-.76,3.04-1.14,7.22-1.9,14.82-3.8,22.42-5.7,3.8-1.14,7.98-2.66,11.78-4.18,1.52-.38,3.04-.76,4.18-.76,3.8,0,6.84,1.52,9.88,4.18,4.94,4.56,11.02,7.6,16.72,11.4,3.42,1.9,6.84,2.66,10.64,2.66,1.52,0,3.04,0,4.56-.38.38,0,1.14-.38,1.52-.38.76,0,1.14.76,1.14,1.52v.38c-.38.76-.76,1.52-1.52,2.28-5.7,7.98-9.88,16.34-12.92,25.46-1.52,4.94-1.9,9.88-1.9,15.2v4.18c0,1.52.38,3.04.38,4.18,0,1.52,1.52,2.66,1.52,4.18,0,0,0,.38-.38.76-.76,1.52-2.66,1.9-3.8,2.66-4.94,3.42-7.98,7.98-10.64,12.92-1.9,3.04-3.04,6.84-4.18,10.64-.38,1.52-.38,3.04-.38,4.94s0,3.8.76,6.08c.38,1.52,1.52,3.04,1.52,4.94,0,.38-.38,1.14-.38,1.52-3.42.38-7.22,1.14-11.02,1.14-6.84.76-12.54,3.8-16.72,9.12-6.46,7.98-9.5,17.1-10.64,26.98,0,1.14-.38,2.66-.38,3.8,0,1.9.38,4.18,1.14,6.08,2.28,6.46,6.46,11.02,13.68,11.78,1.52.38,2.28.38,2.28,1.14,0,.38-.38,1.14-.76,1.9-1.9,4.56-3.04,11.4-3.04,18.24,0,4.94.76,9.88,1.9,13.3,1.14,2.28,2.66,3.8,4.94,5.32-4.56,3.8-6.08,8.74-7.22,13.68-2.66,12.92-5.32,25.46-7.22,38-1.52,8.74-1.9,17.1-2.66,25.84,0,1.52,0,3.04-.38,4.56-.76,4.56-1.9,9.12-1.9,13.68,0,1.14-.38,2.28-.76,3.42-.38.76-.76,1.14-1.52,1.14h-.38c-.38,0-1.14-.76-1.14-1.14-.38-1.52-.38-3.04-.38-4.56-.76-7.22-.76-14.44-1.9-21.66-.76-7.98-2.28-15.96-3.8-23.94-.76-6.46-1.9-13.3-3.04-19.38s-2.66-12.16-3.8-18.24c-.38-1.52-1.14-3.04-1.9-4.56-.76-1.14-1.52-2.28-1.52-3.42s.76-2.28,1.52-3.42c3.42-5.32,4.18-11.78,4.56-18.24v-4.94c0-5.7-.38-10.64-1.52-16.34-2.66-12.54-5.7-24.7-10.64-36.48-2.66-6.46-5.7-11.78-11.02-15.96-1.52-1.14-3.04-1.9-4.94-1.9-.76,0-1.52,0-2.28.38l-3.42,1.14c-.38.38-.76.38-1.14.38-.76,0-1.14-.76-1.14-1.9s.38-2.28.38-3.42c.76-5.32.76-10.64.76-16.34,0-7.22-.38-14.82-1.52-22.42-1.52-9.88-3.42-19.38-6.08-29.26-.38-.76-.38-1.52-.76-2.28-1.14-1.9-1.52-3.8-1.52-5.32,0-1.9.38-3.42.76-5.32,1.14-2.66,1.52-5.7,1.52-8.74,0-1.52-.38-2.66-.38-4.18-.38-10.26-1.9-20.52-5.32-30.4-1.14-3.42-3.04-6.08-4.94-9.12-.76-.76-1.52-1.9-2.66-3.04-.76-1.14-1.14-1.9-1.14-2.28,0-.76.38-1.14,1.52-2.28,1.9-1.9,3.04-3.8,4.56-6.08,1.9-3.42,3.04-6.46,3.04-10.26.38-6.08.38-12.16.38-18.62v-11.02c0-6.08-1.9-11.4-5.32-16.34-.38-.76-.76-1.9-.76-2.66,0-.38,0-1.14.38-1.9,1.14-2.66,1.52-4.94,1.52-7.6,0-1.9-.38-3.8-.38-5.7-1.14-9.5-2.28-19.38-2.28-29.26v-2.66c0-7.98,1.14-15.96,2.28-23.94v-3.04c0-3.04-.38-5.7-2.28-8.36-.38-.38-.38-1.14-.38-1.52s0-1.14.76-1.52c3.42-3.42,4.94-7.6,6.08-12.16,3.42-10.26,6.46-20.9,9.5-31.54,2.66-8.36,4.56-17.1,7.22-25.84.76-3.42,1.9-7.22,3.8-10.64.38,0,1.14-.38,1.52-.38,0,.38.38.76.38,1.14v.38c-4.18,17.48-4.18,35.34-5.7,52.82-.76,8.36-1.52,16.72-1.52,25.46v5.7c.38,5.7.38,11.4,3.42,16.72v3.42c-.38,2.66-.76,5.32-.76,7.98,0,5.32.76,10.64,1.9,15.58.38,3.42,3.04,6.08,4.94,8.74,1.52,1.52,3.8,2.28,6.46,2.28h1.52c3.8-.76,7.6-1.9,10.64-4.56,5.7-4.56,10.26-9.5,13.68-15.58.76-.76,1.14-1.9,1.52-2.66.38-.38.76-.76,1.52-.76.38,0,1.14.38,1.52,1.14,0,.38.38.76.76,1.52,3.04,6.08,7.98,10.64,12.92,15.58,2.66,2.66,6.08,3.8,9.88,4.94,1.14.38,1.9.38,3.04.38s2.66,0,3.8-.76c2.28-.76,3.42-2.66,4.94-4.18,3.8-4.18,3.8-9.12,4.56-14.06Z"/>
            </g>
        </g>
    </g>
</svg>