<?xml version="1.0" encoding="utf-8"?>
<!-- Generator: Adobe Illustrator 26.5.0, SVG Export Plug-In . SVG Version: 6.00 Build 0)  -->
<svg version="1.1" id="Livello_1" xmlns="http://www.w3.org/2000/svg" xmlns:xlink="http://www.w3.org/1999/xlink" x="0px" y="0px"
	 viewBox="0 0 36.09 36.08" style="enable-background:new 0 0 36.09 36.08;" xml:space="preserve">
<style type="text/css">
	.st0{fill:none;stroke:#000000;stroke-width:0.5;stroke-miterlimit:10;}
</style>
<g>
	<g>
		
			<rect x="14.49" y="14.49" transform="matrix(6.123234e-17 -1 1 6.123234e-17 -14.2313 50.3196)" class="st0" width="7.12" height="35.58"/>
		
			<rect x="14.49" y="7.37" transform="matrix(6.123234e-17 -1 1 6.123234e-17 -7.1136 43.2019)" class="st0" width="7.12" height="35.58"/>
		
			<rect x="14.49" y="0.25" transform="matrix(6.123234e-17 -1 1 6.123234e-17 4.043267e-03 36.0843)" class="st0" width="7.12" height="35.58"/>
		
			<rect x="14.49" y="-6.87" transform="matrix(6.123234e-17 -1 1 6.123234e-17 7.1217 28.9666)" class="st0" width="7.12" height="35.58"/>
		
			<rect x="14.49" y="-13.99" transform="matrix(6.123234e-17 -1 1 6.123234e-17 14.2394 21.8489)" class="st0" width="7.12" height="35.58"/>
		
			<rect x="28.72" y="0.25" transform="matrix(-1 -1.224647e-16 1.224647e-16 -1 64.5525 36.0802)" class="st0" width="7.12" height="35.59"/>
		
			<rect x="21.6" y="0.25" transform="matrix(-1 -1.224647e-16 1.224647e-16 -1 50.3204 36.0802)" class="st0" width="7.12" height="35.59"/>
		
			<rect x="14.49" y="0.25" transform="matrix(-1 -1.224647e-16 1.224647e-16 -1 36.0883 36.0802)" class="st0" width="7.12" height="35.59"/>
		
			<rect x="7.37" y="0.25" transform="matrix(-1 -1.224647e-16 1.224647e-16 -1 21.8562 36.0802)" class="st0" width="7.12" height="35.59"/>
		
			<rect x="0.25" y="0.25" transform="matrix(-1 -1.224647e-16 1.224647e-16 -1 7.6241 36.0802)" class="st0" width="7.12" height="35.59"/>
	</g>
	<rect x="1.53" y="1.52" transform="matrix(6.123234e-17 -1 1 6.123234e-17 4.040529e-03 7.6201)" width="4.57" height="4.57"/>
	<rect x="8.64" y="8.64" transform="matrix(6.123234e-17 -1 1 6.123234e-17 4.040529e-03 21.8522)" width="4.57" height="4.57"/>
	<rect x="15.76" y="15.76" transform="matrix(6.123234e-17 -1 1 6.123234e-17 4.050149e-03 36.0843)" width="4.57" height="4.57"/>
	<rect x="22.88" y="22.87" transform="matrix(6.123234e-17 -1 1 6.123234e-17 2.414682e-03 50.318)" width="4.57" height="4.57"/>
	<rect x="29.99" y="29.99" transform="matrix(6.123234e-17 -1 1 6.123234e-17 7.957178e-04 64.5517)" width="4.57" height="4.57"/>
</g>
</svg>
