<?xml version="1.0" encoding="utf-8"?>
<!-- Generator: Adobe Illustrator 26.5.0, SVG Export Plug-In . SVG Version: 6.00 Build 0)  -->
<svg version="1.1" id="Livello_1" xmlns="http://www.w3.org/2000/svg" xmlns:xlink="http://www.w3.org/1999/xlink" x="0px" y="0px"
	 viewBox="0 0 36.09 36.08" style="enable-background:new 0 0 36.09 36.08;" xml:space="preserve">
<style type="text/css">
	.st0{fill:none;stroke:#000000;stroke-width:0.5;stroke-miterlimit:10;}
</style>
<g>
	<g>
		
			<rect x="14.49" y="-13.99" transform="matrix(-1.836970e-16 1 -1 -1.836970e-16 21.8489 -14.2394)" class="st0" width="7.12" height="35.58"/>
		
			<rect x="14.49" y="-6.87" transform="matrix(-1.836970e-16 1 -1 -1.836970e-16 28.9666 -7.1217)" class="st0" width="7.12" height="35.58"/>
		
			<rect x="14.49" y="0.25" transform="matrix(-1.836970e-16 1 -1 -1.836970e-16 36.0843 -4.037791e-03)" class="st0" width="7.12" height="35.58"/>
		
			<rect x="14.49" y="7.37" transform="matrix(-1.836970e-16 1 -1 -1.836970e-16 43.2019 7.1136)" class="st0" width="7.12" height="35.58"/>
		
			<rect x="14.49" y="14.49" transform="matrix(-1.836970e-16 1 -1 -1.836970e-16 50.3196 14.2313)" class="st0" width="7.12" height="35.58"/>
		<rect x="0.25" y="0.25" class="st0" width="7.12" height="35.59"/>
		<rect x="7.37" y="0.25" class="st0" width="7.12" height="35.59"/>
		<rect x="14.49" y="0.25" class="st0" width="7.12" height="35.59"/>
		<rect x="21.6" y="0.25" class="st0" width="7.12" height="35.59"/>
		<rect x="28.72" y="0.25" class="st0" width="7.12" height="35.59"/>
	</g>
	
		<rect x="29.99" y="29.99" transform="matrix(-1.836970e-16 1 -1 -1.836970e-16 64.5517 -8.094823e-04)" width="4.57" height="4.57"/>
	<rect x="22.88" y="29.99" transform="matrix(-1.836970e-16 1 -1 -1.836970e-16 57.4356 7.1152)" width="4.57" height="4.57"/>
	<rect x="15.76" y="29.99" transform="matrix(-1.836970e-16 1 -1 -1.836970e-16 50.3196 14.2313)" width="4.57" height="4.57"/>
	<rect x="8.64" y="29.99" transform="matrix(-1.836970e-16 1 -1 -1.836970e-16 43.2035 21.3473)" width="4.57" height="4.57"/>
	<rect x="1.53" y="29.99" transform="matrix(-1.836970e-16 1 -1 -1.836970e-16 36.0875 28.4634)" width="4.57" height="4.57"/>
</g>
</svg>
