<?xml version="1.0" encoding="utf-8"?>
<!-- Generator: Adobe Illustrator 26.5.0, SVG Export Plug-In . SVG Version: 6.00 Build 0)  -->
<svg version="1.1" id="Livello_1" xmlns="http://www.w3.org/2000/svg" xmlns:xlink="http://www.w3.org/1999/xlink" x="0px" y="0px"
	 viewBox="0 0 36.09 36.08" style="enable-background:new 0 0 36.09 36.08;" xml:space="preserve">
<style type="text/css">
	.st0{fill:none;stroke:#000000;stroke-width:0.5;stroke-miterlimit:10;}
</style>
<g>
	<g>
		<rect x="0.25" y="0.25" class="st0" width="7.12" height="35.58"/>
		<rect x="7.37" y="0.25" class="st0" width="7.12" height="35.58"/>
		<rect x="14.49" y="0.25" class="st0" width="7.12" height="35.58"/>
		<rect x="21.6" y="0.25" class="st0" width="7.12" height="35.58"/>
		<rect x="28.72" y="0.25" class="st0" width="7.12" height="35.58"/>
		
			<rect x="14.49" y="14.48" transform="matrix(6.123234e-17 -1 1 6.123234e-17 -14.228 50.3163)" class="st0" width="7.12" height="35.59"/>
		
			<rect x="14.49" y="7.36" transform="matrix(6.123234e-17 -1 1 6.123234e-17 -7.112 43.2003)" class="st0" width="7.12" height="35.59"/>
		
			<rect x="14.49" y="0.25" transform="matrix(6.123234e-17 -1 1 6.123234e-17 4.047088e-03 36.0843)" class="st0" width="7.12" height="35.59"/>
		
			<rect x="14.49" y="-6.87" transform="matrix(6.123234e-17 -1 1 6.123234e-17 7.1201 28.9682)" class="st0" width="7.12" height="35.59"/>
		
			<rect x="14.49" y="-13.99" transform="matrix(6.123234e-17 -1 1 6.123234e-17 14.2361 21.8522)" class="st0" width="7.12" height="35.59"/>
	</g>
	<rect x="30" y="1.52" width="4.57" height="4.57"/>
	<rect x="30" y="8.64" width="4.57" height="4.57"/>
	<rect x="30" y="15.76" width="4.57" height="4.57"/>
	<rect x="30" y="22.87" width="4.57" height="4.57"/>
	<rect x="30" y="29.99" width="4.57" height="4.57"/>
</g>
</svg>
