<?xml version="1.0" encoding="UTF-8" standalone="no"?>
<!-- Created with Inkscape (http://www.inkscape.org/) -->

<svg
   version="1.1"
   id="svg228"
   width="85.384003"
   height="88.787521"
   viewBox="0 0 85.384001 88.78752"
   sodipodi:docname="abstract-white-x-shape-formed-by-two-intersecting-brushstrokes-set-against-a-clean-black-backdrop-vector\.svg"
   inkscape:version="1.2.2 (b0a8486541, 2022-12-01)"
   xmlns:inkscape="http://www.inkscape.org/namespaces/inkscape"
   xmlns:sodipodi="http://sodipodi.sourceforge.net/DTD/sodipodi-0.dtd"
   xmlns="http://www.w3.org/2000/svg"
   xmlns:svg="http://www.w3.org/2000/svg">
  <defs
     id="defs232" />
  <sodipodi:namedview
     id="namedview230"
     pagecolor="#ffffff"
     bordercolor="#000000"
     borderopacity="0.25"
     inkscape:showpageshadow="2"
     inkscape:pageopacity="0.0"
     inkscape:pagecheckerboard="0"
     inkscape:deskcolor="#d1d1d1"
     showgrid="false"
     inkscape:zoom="5.0510203"
     inkscape:cx="42.763637"
     inkscape:cy="44.743435"
     inkscape:window-width="1920"
     inkscape:window-height="1043"
     inkscape:window-x="0"
     inkscape:window-y="0"
     inkscape:window-maximized="1"
     inkscape:current-layer="g234" />
  <g
     inkscape:groupmode="layer"
     inkscape:label="Image"
     id="g234"
     transform="translate(-35.733413,-33.6)">
    <path
       style="fill:#000000;stroke-width:0.16"
       d="m 40.64,122.14948 c 0,-0.32482 0.292517,-0.86948 0.466968,-0.86948 0.275974,0 0.292589,0.627 0.02308,0.87091 -0.349008,0.31585 -0.490045,0.31544 -0.490045,-10e-4 z m 68.8,-1.60436 c -0.748,-0.40124 -1.468,-0.81967 -1.6,-0.92984 -0.41758,-0.34852 -1.44916,-0.89528 -1.68915,-0.89528 -0.12697,0 -0.23085,-0.10663 -0.23085,-0.23695 0,-0.13033 -0.18,-0.28213 -0.4,-0.33735 -0.22,-0.0552 -0.4,-0.16137 -0.4,-0.2359 0,-0.0745 -0.486,-0.43045 -1.08,-0.79094 -0.594,-0.36049 -1.22048,-0.7417 -1.39219,-0.84715 -0.1717,-0.10544 -0.4237,-0.30801 -0.56,-0.45015 -0.13629,-0.14214 -0.51781,-0.41801 -0.84781,-0.61305 -0.44602,-0.26361 -0.6,-0.29788 -0.6,-0.13356 0,0.12158 0.09,0.32101 0.2,0.44318 0.14077,0.15635 0.0815,0.14791 -0.2,-0.0285 -0.22,-0.13786 -0.4,-0.40163 -0.4,-0.58615 0,-0.18453 -0.162,-0.44939 -0.36,-0.58856 -0.348896,-0.24525 -0.36,-0.23866 -0.36,0.21377 0,0.38378 0.234803,0.67431 1.32,1.63326 1.42354,1.25793 1.56906,1.43806 1.16172,1.43806 -0.22973,0 -0.22086,0.056 0.0667,0.42158 0.43938,0.55858 0.41854,0.70863 -0.0671,0.48337 -0.21932,-0.10172 -0.39932,-0.27495 -0.4,-0.38495 -6.4e-4,-0.11 -0.1139,-0.2 -0.25159,-0.2 -0.41753,0 -1.87345,-0.67008 -2.487276,-1.14476 -0.31769,-0.24567 -0.608782,-0.41551 -0.646872,-0.37742 -0.03809,0.0381 -0.354162,-0.18469 -0.702382,-0.49507 -0.348221,-0.31038 -0.919658,-0.79347 -1.269858,-1.07354 -0.3502,-0.28006 -0.804878,-0.67261 -1.010395,-0.87233 -0.205519,-0.19972 -0.548991,-0.478 -0.763272,-0.6184 -0.357357,-0.23415 -0.389605,-0.2339 -0.389605,0.003 0,0.14212 -0.06755,0.2584 -0.150122,0.2584 -0.08257,0 -0.136568,-0.16402 -0.12,-0.36448 0.02247,-0.2719 -0.267136,-0.6215 -1.140184,-1.37636 -0.643668,-0.55653 -1.210675,-0.97151 -1.260012,-0.92217 -0.04934,0.0493 0.06123,0.39477 0.245702,0.76763 0.184477,0.37285 0.305168,0.70816 0.268205,0.74512 -0.100914,0.10092 -1.043589,-1.43706 -1.043589,-1.70262 0,-0.25357 -2.847574,-3.22712 -3.09041,-3.22712 -0.08374,0 -0.110828,0.25038 -0.06058,0.56 0.04998,0.308 0.0234,0.56 -0.05907,0.56 -0.08247,0 -0.149941,-0.0939 -0.149941,-0.20868 0,-0.29888 -0.921485,-1.71132 -1.116477,-1.71132 -0.08994,0 -0.163523,0.1224 -0.163523,0.272 0,0.224 -0.03529,0.23459 -0.2,0.06 -0.16,-0.1696 -0.16,-0.22667 0,-0.28533 0.546659,-0.20045 0.102266,-0.83504 -2.234992,-3.19159 -1.339246,-1.35029 -2.500246,-2.45508 -2.58,-2.45508 -0.142635,0 -0.0743,0.57158 0.143474,1.2 0.10826,0.31241 0.105065,0.31224 -0.134749,-0.007 -0.135103,-0.17985 -0.36965,-0.70613 -0.521216,-1.16952 -0.231682,-0.70832 -0.635317,-1.221775 -2.534047,-3.223488 -1.242158,-1.30953 -2.279691,-2.321584 -2.305627,-2.24901 -0.02594,0.07257 0.208064,0.59627 0.52,1.163768 0.311936,0.567499 0.563805,1.133837 0.559707,1.25853 -0.0041,0.124691 -0.177796,-0.09729 -0.386,-0.493288 -0.208203,-0.396 -0.535064,-0.88566 -0.726358,-1.088132 -0.37919,-0.401347 -0.413117,-0.390296 -1.320192,0.430064 -0.31263,0.282743 -0.44,0.552525 -0.44,0.931962 0,0.429891 -0.08233,0.565326 -0.42219,0.694542 -0.232205,0.08828 -0.44989,0.132818 -0.483744,0.09896 -0.03386,-0.03386 0.119264,-0.377869 0.340264,-0.764477 0.417139,-0.729728 0.518148,-1.334522 0.250512,-1.499931 -0.08534,-0.05274 -0.254898,0.141009 -0.376802,0.430558 -0.121904,0.289547 -0.466082,0.81808 -0.764842,1.174517 -0.298758,0.356437 -0.671278,0.824437 -0.82782,1.04 -0.264543,0.364283 -0.272383,0.36611 -0.111136,0.02589 0.09542,-0.201324 0.129011,-0.506174 0.07465,-0.677443 -0.07273,-0.229166 0.09393,-0.506934 0.631136,-1.051845 0.46446,-0.471069 0.729903,-0.882163 0.729903,-1.130384 0,-0.28872 -0.05825,-0.356819 -0.224214,-0.262112 C 72.55809,96.14476 70.88,98.067192 70.88,98.261349 c 0,0.09309 -0.148554,0.377875 -0.330117,0.632861 -0.418387,0.587568 -0.271542,0.844227 0.409877,0.716392 0.387306,-0.07266 0.547534,-0.03449 0.617186,0.147014 0.05174,0.134834 0.276094,0.328084 0.498564,0.429454 0.660962,0.30115 0.504517,0.61293 -0.30756,0.61293 -0.891812,0 -1.196272,0.37899 -0.716196,0.89153 0.30992,0.33087 0.308716,0.333 -0.610612,1.0792 -0.506628,0.41123 -0.968096,0.74804 -1.025483,0.74848 -0.05739,4.8e-4 -0.0074,-0.32142 0.111151,-0.71524 0.235444,-0.78232 0.08764,-1.05853 -0.373818,-0.69857 -1.189157,0.92759 -1.632992,1.35976 -1.632992,1.59008 0,0.14724 -0.18,0.38566 -0.4,0.52981 -0.384765,0.2521 -0.562242,0.89471 -0.247106,0.89471 0.08409,0 0.415797,-0.17841 0.737122,-0.39647 0.642746,-0.43618 1.082306,-0.35485 1.269475,0.23487 0.146309,0.46097 -0.03345,0.6775 -0.399734,0.48147 -0.238714,-0.12775 -0.35233,-0.0875 -0.55029,0.19517 -0.137206,0.19589 -0.249467,0.44814 -0.249467,0.56056 0,0.32167 -0.287597,0.23855 -0.4,-0.1156 -0.05586,-0.176 -0.162824,-0.32 -0.237696,-0.32 -0.07487,0 -0.236507,-0.0385 -0.359187,-0.0856 -0.134952,-0.0518 -0.313914,0.0904 -0.453087,0.36 -0.126516,0.24507 -0.432961,0.75134 -0.680988,1.12503 -0.29756,0.44832 -0.416351,0.78849 -0.34922,1 0.150356,0.47373 -0.05775,0.96056 -0.410604,0.96056 -0.276175,0 -0.309218,-0.11968 -0.309218,-1.12 0,-0.616 -0.05875,-1.12 -0.130558,-1.12 -0.280999,0 -0.869359,1.77203 -0.777109,2.3405 0.109262,0.67331 -0.169592,1.37119 -0.520858,1.30355 -0.267752,-0.0516 -0.353048,-0.53871 -0.351027,-2.00476 0.0011,-0.77099 -0.02359,-0.82746 -0.297237,-0.68101 -0.164117,0.0878 -0.454336,0.35794 -0.644929,0.60025 -0.277816,0.35318 -0.326378,0.5666 -0.244888,1.07621 0.05591,0.34962 0.1704,0.67816 0.25443,0.7301 0.08711,0.0538 -0.06582,0.58642 -0.355768,1.23899 -0.397222,0.894 -0.607446,1.17904 -0.960304,1.30204 C 60.056792,112.92356 60,112.90417 60,112.63168 c 0,-0.17143 0.06613,-0.31168 0.14695,-0.31168 0.215212,0 0.756154,-0.94488 0.949917,-1.65924 l 0.167962,-0.61923 -0.668235,0.10685 c -0.367528,0.0588 -0.806592,0.22943 -0.975695,0.37924 -0.840661,0.74474 0.622083,-1.27685 2.291962,-3.16762 1.47223,-1.66698 3.757921,-4.55004 6.152134,-7.76 1.115821,-1.496 2.175595,-2.9 2.355055,-3.12 0.670963,-0.822538 1.707171,-2.240902 2.212984,-3.029144 C 73.06088,92.784115 73.12,92.592789 72.958358,92.398021 72.734667,92.12849 72.32,92.07781 72.32,92.32 c 0,0.088 -0.072,0.16 -0.16,0.16 -0.088,0 -0.16,-0.144 -0.16,-0.32 0,-0.425566 -0.13468,-0.397008 -0.796934,0.168989 -0.464784,0.397227 -0.527442,0.523211 -0.378684,0.761409 0.135205,0.216498 0.124805,0.358519 -0.04306,0.588095 -0.275525,0.376803 -0.286026,0.832267 -0.02132,0.924608 0.134622,0.04696 0.03972,0.273605 -0.29033,0.693334 -0.26968,0.34296 -0.878044,1.127565 -1.35192,1.743565 -0.473875,0.616 -0.955227,1.215142 -1.06967,1.331429 -0.114445,0.116285 -0.20808,0.267086 -0.20808,0.335113 0,0.274485 -0.762693,1.003266 -0.869347,0.830695 -0.173699,-0.281053 -0.861719,-0.206171 -1.198307,0.130417 -0.300676,0.300676 -0.349426,0.919586 -0.06811,0.864686 0.07795,-0.0152 0.356387,-0.0741 0.618745,-0.1309 0.404732,-0.0876 0.440648,-0.0713 0.237018,0.10766 -0.132,0.11599 -0.441664,0.4809 -0.688142,0.8109 -0.496117,0.66423 -0.838812,0.78979 -0.699277,0.25621 0.108379,-0.41444 -0.0409,-1.25621 -0.222778,-1.25621 -0.07161,0 -0.397715,0.43342 -0.724683,0.96315 -0.377635,0.61181 -0.733885,0.99813 -0.976632,1.05906 -0.270427,0.0679 -0.368454,0.19124 -0.335317,0.42202 0.03096,0.21562 -0.100561,0.41245 -0.388192,0.58094 -0.673291,0.39441 -1.488313,1.59346 -2.030397,2.9871 -0.522648,1.34367 -0.593508,1.7477 -0.334582,1.90773 0.346718,0.21428 0.127542,0.53327 -0.52,0.7568 -1.24381,0.42936 -1.159302,0.49577 -1.166731,-0.9168 -0.0039,-0.74237 0.07969,-1.44801 0.199014,-1.68 0.11316,-0.22 0.206189,-0.49 0.206731,-0.6 4.8e-4,-0.11 0.09099,-0.20294 0.200986,-0.20653 0.11,-0.004 0.502232,-0.48959 0.871626,-1.08 0.369393,-0.59041 1.320851,-1.90147 2.11435,-2.91347 0.793499,-1.012 1.751269,-2.251613 2.128374,-2.754694 1.03201,-1.376759 1.917669,-2.527576 4.20565,-5.464783 2.776526,-3.564379 2.64916,-3.328342 2.070442,-3.836957 -0.258743,-0.2274 -0.516936,-0.415729 -0.573762,-0.41851 -0.05683,-0.0028 -0.32824,0.34545 -0.603142,0.773846 -0.274901,0.428397 -1.092407,1.612106 -1.816679,2.630466 C 66.752587,93.547726 66.088,94.492958 66,94.629882 65.76733,94.991902 65.131938,94.78891 65.23725,94.3862 65.28129,94.21779 65.380925,94.08 65.458661,94.08 65.536397,94.08 65.6,94.008 65.6,93.92 65.6,93.53324 65.281006,93.82222 64.896768,94.557054 64.40888,95.490123 64.403571,95.52 64.725629,95.52 c 0.332553,0 0.157763,0.320782 -1.244533,2.284016 -1.176674,1.64736 -1.65369,2.077814 -1.820589,1.642883 -0.1386,-0.361189 -0.971835,-0.316806 -1.174878,0.06258 -0.237023,0.44288 -0.204424,0.700461 0.07437,0.587641 0.132,-0.0534 0.348,-0.140825 0.48,-0.194241 0.489594,-0.198119 0.233789,0.581771 -0.516714,1.575331 -3.454843,4.57375 -8.753993,10.50442 -9.087699,10.17071 -0.114147,-0.11415 0.920717,-1.52854 3.181807,-4.34871 1.741971,-2.17269 2.662606,-3.50521 2.662606,-3.85384 0,-0.44829 -1.219971,0.66543 -1.686366,1.5395 -0.124983,0.23423 -0.397308,0.55965 -0.605168,0.72315 -0.20786,0.16351 -0.566205,0.59553 -0.796324,0.96006 -0.405875,0.64295 -0.646116,0.7803 -2.461676,1.40738 -0.104244,0.036 -0.272752,0.22096 -0.374463,0.41101 -0.179014,0.33449 -0.163992,0.34201 0.469533,0.23497 0.359955,-0.0608 0.654448,-0.0502 0.654429,0.0235 -2.1e-5,0.0737 -0.378021,0.63806 -0.84,1.25406 -0.576923,0.76926 -1.077821,1.24526 -1.599503,1.52 -0.76862,0.40478 -0.958566,0.73402 -0.520462,0.90214 0.366963,0.14082 0.288731,0.48013 -0.24332,1.05534 L 48.79336,114 l 0.02855,-1.04 c 0.03878,-1.41274 -0.190981,-1.51612 -0.789077,-0.35507 -0.431925,0.83847 -0.436077,0.94708 -0.04099,1.07248 0.196144,0.0623 0.277303,0.18896 0.218755,0.34154 -0.06596,0.17189 -0.142828,0.19281 -0.263835,0.0718 -0.291184,-0.29119 -0.813206,-0.19036 -1.600987,0.30924 -0.705205,0.44723 -1.225768,0.60985 -1.225768,0.38293 0,-0.0534 0.342,-0.43985 0.76,-0.85878 1.239493,-1.24227 1.703408,-1.77592 2.715901,-3.12415 0.528693,-0.704 1.138792,-1.46 1.355779,-1.68 0.469525,-0.47604 2.36832,-2.96382 2.36832,-3.10294 0,-0.29259 -0.393208,0.0512 -1.581638,1.38294 -0.726418,0.814 -1.577944,1.768 -1.89228,2.12 -2.518568,2.82034 -4.960554,4.97886 -5.275922,4.66349 -0.131594,-0.13159 1.218494,-2.04699 2.102944,-2.98349 2.064461,-2.18596 2.623629,-3.04652 1.812178,-2.78898 -0.270088,0.0857 -0.156536,-0.11618 0.47594,-0.84626 0.456861,-0.52736 0.945232,-1.05393 1.085268,-1.17015 0.140035,-0.11621 0.350819,-0.39655 0.468408,-0.62296 0.11759,-0.22641 0.766224,-1.09565 1.441409,-1.93165 1.267031,-1.56881 1.775063,-2.36196 1.61525,-2.52178 -0.185147,-0.18514 -0.931866,0.37158 -2.272693,1.69442 -1.190163,1.1742 -1.31353,1.26087 -0.930069,0.65343 0.549203,-0.87 1.855898,-2.75822 1.983387,-2.86607 0.08736,-0.0739 1.700992,-2.116272 2.40184,-3.04 0.166919,-0.22 0.614548,-0.798677 0.994733,-1.285947 1.359555,-1.742499 1.693007,-2.179274 3.11029,-4.074053 2.289673,-3.061085 2.696944,-3.651997 2.463385,-3.574144 -0.120763,0.04025 -0.296712,0.200742 -0.391,0.35664 -0.09429,0.155896 -0.38743,0.516165 -0.65143,0.800595 -0.264,0.284431 -1.344,1.584421 -2.4,2.888869 -4.762149,5.882552 -6.909358,8.54596 -7.28,9.03016 -0.22,0.2874 -0.578176,0.71499 -0.795946,0.95021 -0.217771,0.23522 -0.860657,1.03967 -1.428636,1.78767 -2.362311,3.11104 -3.771948,4.64 -4.277888,4.64 -0.482517,0 -0.477956,-0.17497 0.01574,-0.60424 0.348926,-0.30339 0.38275,-0.43086 0.299912,-1.13031 l -0.09337,-0.78835 1.305512,-0.6792 c 0.718032,-0.37356 1.383302,-0.82455 1.478381,-1.00221 0.160085,-0.29912 0.136022,-0.31564 -0.325423,-0.22335 -0.755542,0.15111 -0.597312,-0.10479 0.334997,-0.54177 0.938667,-0.43996 1.17757,-0.79057 0.53869,-0.79057 -0.372586,0 -0.394696,-0.032 -0.217768,-0.31532 0.108305,-0.17343 0.414917,-0.40535 0.681355,-0.51538 0.490189,-0.20244 1.68444,-1.3075 1.68444,-1.55865 0,-0.34631 -0.550474,-0.29454 -1.091482,0.10267 L 47.12,101.6654 l 0.416445,-0.4727 c 0.229045,-0.25998 0.657072,-0.8327 0.951173,-1.2727 0.2941,-0.44 1.1687,-1.652062 1.943555,-2.693474 C 51.206029,96.185117 51.84,95.273117 51.84,95.199861 c 0,-0.07326 0.09,-0.165338 0.2,-0.204623 0.11,-0.03929 0.149002,-0.126284 0.08667,-0.193331 -0.106688,-0.114758 -0.978077,0.720059 -1.613299,1.545591 -1.182104,1.536256 -2.694738,3.357089 -3.233648,3.892502 -0.3543,0.352 -0.841189,0.93189 -1.08198,1.28864 -0.540075,0.80017 -1.65096,1.87845 -1.501441,1.45737 0.05742,-0.16169 0.149437,-0.57569 0.204494,-0.92 0.08037,-0.50258 0.05104,-0.62601 -0.148733,-0.62601 -0.13686,0 -0.380062,0.16394 -0.540449,0.36432 -0.357578,0.44672 -1.44097,1.22868 -1.256845,0.90715 0.129872,-0.2268 0.5038,-0.65463 1.50917,-1.72671 0.459121,-0.48959 0.569598,-0.53054 1.295193,-0.48 0.764,0.0532 0.79705,0.038 0.895994,-0.41307 0.0736,-0.335485 0.0293,-0.521996 -0.156195,-0.657634 -0.327506,-0.239477 -0.328293,-0.543824 -0.0026,-1.008802 0.140976,-0.201272 0.219222,-0.403044 0.173881,-0.448385 -0.159473,-0.159474 -0.947245,0.488171 -1.328597,1.09227 -0.448012,0.709698 -0.861604,0.807626 -0.861604,0.204007 0,-0.264087 0.264,-0.689092 0.752337,-1.211165 0.736621,-0.787507 0.742471,-0.801839 0.28,-0.685984 l -0.472337,0.118326 0.52,-0.592729 c 0.368084,-0.419565 0.52,-0.751365 0.52,-1.135733 0,-0.750355 0.367129,-1.081536 1.055728,-0.952354 0.557838,0.104651 0.692545,-0.04123 0.352272,-0.381507 -0.149333,-0.149333 -0.149333,-0.234667 0,-0.384 0.259876,-0.259877 0.243577,-0.768 -0.02464,-0.768 -0.119149,0 -0.410859,0.18 -0.648243,0.4 -0.548615,0.508438 -0.710946,0.505669 -0.612284,-0.01045 0.102146,-0.53438 2.236321,-2.62955 2.678497,-2.62955 0.547448,0 2.463397,-2.196366 2.236377,-2.563693 -0.161428,-0.261197 0.711413,-1.634715 0.974637,-1.533705 0.219122,0.08408 1.027645,-0.639453 1.027645,-0.919628 0,-0.07716 -0.13935,-0.103856 -0.309667,-0.05932 -0.184578,0.04827 -0.346155,-0.01411 -0.4,-0.154426 -0.126032,-0.328437 -0.138455,-0.310477 0.356565,-0.51552 0.310382,-0.128565 0.519094,-0.39109 0.683248,-0.859411 0.169731,-0.484235 0.31436,-0.66105 0.513102,-0.627287 0.316296,0.05373 0.384898,-0.38327 0.07675,-0.488916 C 53.799507,83.235646 54.805622,82.24 55.129434,82.24 c 0.118576,0 0.354204,-0.313355 0.523619,-0.696347 0.169414,-0.382991 0.901177,-1.336991 1.626139,-2.12 C 58.794046,77.787504 59.52,76.848954 59.52,76.526622 59.52,76.343432 57.237339,73.639726 56.576346,73.04 56.479355,72.952 56.185659,72.592 55.923688,72.24 55.073966,71.098266 54.187709,70.219826 53.565046,69.902168 53.229912,69.731195 52.736275,69.287264 52.468077,68.915654 52.166456,68.497734 51.816333,68.208323 51.550222,68.156958 51.184053,68.086282 51.12,67.993048 51.12,67.530746 c 0,-0.298744 -0.09084,-0.573658 -0.201877,-0.610917 -0.111032,-0.03726 -0.532333,-0.530839 -0.936222,-1.09684 -0.806168,-1.129743 -1.153779,-1.399975 -1.510522,-1.174275 -0.127259,0.08051 -0.322437,0.147489 -0.433731,0.148836 -0.343646,0.0042 -0.808637,-0.957833 -1.011402,-2.092432 -0.263137,-1.472432 -0.352048,-1.588182 -0.856142,-1.114609 -0.385917,0.36255 -0.422234,0.36811 -0.709037,0.108557 -0.16931,-0.153224 -0.384742,-0.692684 -0.489728,-1.226316 -0.194254,-0.987374 -0.314081,-1.11912 -0.649877,-0.714512 -0.312038,0.375983 -0.510315,0.107064 -0.453564,-0.615161 0.04819,-0.613291 0.02038,-0.666751 -0.370389,-0.712015 C 43.012362,58.374866 42.315816,57.60257 40.73168,55.364437 39.739114,53.962101 39.492845,53.44 39.823946,53.44 c 0.07917,0 0.511169,0.401802 0.96,0.892894 0.44883,0.491092 0.824024,0.797092 0.833764,0.68 0.06997,-0.841056 -0.206977,-1.490321 -0.92359,-2.165254 -0.620574,-0.58448 -0.486464,-0.738547 0.532098,-0.611286 0.498419,0.06227 1.007561,0.214568 1.131428,0.338435 0.253448,0.253448 1.162354,0.308843 1.162354,0.07084 0,-0.0849 -0.162,-0.237018 -0.36,-0.338032 -0.800925,-0.408608 -1.868133,-1.197424 -1.823198,-1.347597 0.103953,-0.347411 0.864264,-0.252102 1.367612,0.171438 0.688917,0.579685 0.805016,0.377452 0.239354,-0.416937 C 42.688696,50.35629 42.383416,49.926296 42.26537,49.75896 42.077147,49.492149 42.100859,49.404595 42.458098,49.047357 42.682144,48.82331 43.039018,48.64 43.25115,48.64 c 0.547165,0 1.245194,-0.591544 1.197215,-1.014579 -0.02155,-0.189981 0.01848,-0.715925 0.08895,-1.168763 0.150597,-0.967717 -0.102114,-1.603612 -0.859959,-2.163911 C 43.253381,43.979286 43.2,43.846243 43.2,43.102997 43.2,42.133277 43.088822,41.76 42.8,41.76 c -0.262565,0 -0.437275,-0.438077 -0.22663,-0.568262 0.24582,-0.151927 1.400588,1.22375 1.517889,1.808262 0.07351,0.366285 0.193683,0.52 0.406547,0.52 0.166207,0 0.302194,-0.05904 0.302194,-0.1312 0,-0.07216 0.252,-0.425606 0.56,-0.785435 C 45.941472,41.924046 46.081738,41.44 45.697118,41.44 c -0.313708,0 -0.447534,-0.444205 -0.246816,-0.81925 0.278805,-0.520953 0.914373,-0.654256 3.349698,-0.702563 2.476419,-0.04912 2.576573,-0.09156 1.908019,-0.808499 -0.490419,-0.525914 -0.38143,-0.684 0.451981,-0.655592 0.712986,0.0243 0.763066,-6.4e-4 0.809563,-0.403062 0.04213,-0.364636 -0.07784,-0.510631 -0.8,-0.973514 -1.009294,-0.646931 -1.318248,-0.98775 -1.192485,-1.315483 0.145524,-0.379226 0.864584,-0.288563 1.252834,0.157963 0.191288,0.22 0.45284,0.4 0.581229,0.4 0.316597,0 0.136582,-1.605347 -0.208304,-1.857638 C 51.258784,34.21068 51.288216,33.6 51.644398,33.6 c 0.450952,0 0.956212,0.435805 1.417159,1.222349 0.346624,0.59147 0.604243,0.804725 1.376976,1.139849 0.994929,0.43149 1.050083,0.550447 0.688312,1.484557 -0.07657,0.197706 0.11711,0.283184 0.974379,0.430029 1.33591,0.228832 1.642098,0.516912 1.80203,1.695469 0.122293,0.901179 0.196344,1.024942 1.296746,2.167304 0.308,0.319744 1.30776,1.429389 2.22169,2.465877 0.913928,1.036486 1.693752,1.852459 1.73294,1.81327 0.07909,-0.07909 -1.332312,-2.412904 -2.0049,-3.315194 -0.915869,-1.228654 -1.453108,-2.022382 -1.849823,-2.732968 -0.351249,-0.629148 -0.375965,-0.753168 -0.166136,-0.833688 0.800189,-0.30706 2.883251,1.801442 7.277581,7.366455 1.705786,2.160222 3.945402,5.128638 5.828648,7.725366 0.792,1.092056 1.872,2.570123 2.4,3.284595 0.528,0.714472 1.167792,1.602269 1.42176,1.972885 0.253968,0.370615 0.484456,0.673845 0.512195,0.673845 0.02774,0 0.755947,-0.703776 1.61824,-1.563947 C 79.493118,57.298331 80.965011,56.16 81.342078,56.16 c 0.0468,0 -0.275545,0.476474 -0.716329,1.058829 -1.200075,1.58552 -0.865773,1.510518 1.054251,-0.236522 0.352,-0.320288 0.909957,-0.783965 1.239904,-1.030393 0.953805,-0.712373 1.81819,-1.550316 1.600096,-1.551149 -0.439434,-0.0017 -0.154339,-0.814947 0.688037,-1.962715 0.488421,-0.66549 0.995145,-1.251084 1.126057,-1.301319 0.463888,-0.178009 0.418151,0.384299 -0.07714,0.948405 -0.541722,0.616987 -0.628488,0.994432 -0.261015,1.135445 0.467917,0.179557 1.499951,-0.692669 3.487543,-2.947506 0.177889,-0.201809 0.45688,-0.438342 0.619977,-0.52563 0.384674,-0.205871 0.404557,0.17896 0.03814,0.738184 -0.278619,0.425229 -0.158235,0.484024 0.487986,0.238331 C 91.001966,50.582381 91.04,50.485784 91.04,49.681608 c 0,-0.819814 0.03725,-0.908966 0.496534,-1.188272 0.273095,-0.166078 0.829666,-0.351917 1.236824,-0.412974 C 93.842627,47.920014 94.4,47.47507 94.4,46.781832 c 0,-0.373958 0.125906,-0.682283 0.38401,-0.940387 0.442107,-0.442107 5.89841,-3.18736 6.16082,-3.099723 0.19917,0.06651 -3.386507,2.303712 -4.421475,2.758676 -0.672115,0.295456 -0.927571,0.79153 -0.483781,0.93946 0.118388,0.03946 0.03703,0.153304 -0.2,0.279848 -0.680092,0.363084 -3.210476,2.374921 -3.081515,2.450024 0.06707,0.03906 0.805941,-0.376855 1.641941,-0.924252 3.536795,-2.315827 6.31166,-3.963518 8.89949,-5.284441 2.06018,-1.051589 2.47301,-1.140965 0.9286,-0.201037 -1.76572,1.074619 -3.16214,2.2 -2.72986,2.2 0.032,0 0.71602,-0.244558 1.52,-0.543464 0.80397,-0.298904 1.46177,-0.52655 1.46177,-0.50588 0,0.02067 -1.11435,0.670782 -2.47632,1.444694 -1.36198,0.773911 -2.439674,1.466412 -2.394878,1.538892 0.0448,0.07248 0.20514,0.0898 0.356323,0.0385 0.896805,-0.304342 3.204335,-1.236918 3.474875,-1.404356 1.08397,-0.670863 6.30484,-2.306775 6.81701,-2.13605 0.10601,0.03534 -0.25044,0.256462 -0.79213,0.491384 -0.54168,0.234923 -0.98488,0.50119 -0.98488,0.591706 0,0.217948 -0.084,0.232144 1.86522,-0.315189 0.93972,-0.263869 1.73558,-0.452768 1.76858,-0.419773 0.033,0.03299 -0.39467,0.241998 -0.95036,0.464456 -1.27549,0.510616 -4.781,2.230854 -4.70365,2.308202 0.1029,0.102904 1.25214,-0.234183 3.36276,-0.98634 2.04265,-0.727937 2.7728,-0.883848 1.54382,-0.329656 -0.35029,0.157959 -0.76502,0.431584 -0.92163,0.608058 -0.28217,0.317971 -0.27609,0.320077 0.67526,0.233696 0.528,-0.04794 1.81018,-0.346301 2.84929,-0.663022 1.82348,-0.555799 3.15962,-0.717453 3.60362,-0.435989 0.25775,0.1634 -0.49464,0.340131 -1.44803,0.340131 -0.70311,0 -3.6838,0.964954 -4.53863,1.46931 -0.30017,0.177109 -0.50563,0.386968 -0.45657,0.466354 0.0491,0.07938 0.64296,0.152688 1.31976,0.162896 0.67681,0.01021 1.08656,0.04901 0.91056,0.08623 -1.08388,0.229204 -1.08807,0.231144 -0.90145,0.417762 0.10583,0.105832 0.9535,0.222216 1.98315,0.272286 1.42791,0.06944 1.67472,0.113421 1.1983,0.213556 -0.89665,0.188456 -0.72389,0.431606 0.30667,0.431606 0.49866,0 0.86491,0.04176 0.81388,0.09279 -0.051,0.05103 -0.65704,0.234645 -1.34667,0.408025 -1.37949,0.346816 -3.40286,1.071117 -3.65388,1.30797 -0.15772,0.148813 1.1581,0.04199 1.98386,-0.161064 0.64914,-0.159618 0.23112,0.242963 -0.47058,0.453195 -0.755,0.226207 -0.81038,0.506906 -0.15367,0.778925 0.37423,0.155011 0.85765,0.159179 2.2,0.01897 1.91664,-0.200189 3.695,-0.227127 4.96039,-0.07514 C 121.17487,51.731163 121.43767,52 120.64788,52 c -0.84207,0 -2.08788,0.335286 -2.08788,0.561915 0,0.132496 0.35409,0.291952 0.92,0.414301 l 0.92,0.198902 -1.28,0.220234 c -0.704,0.121128 -1.38278,0.32208 -1.50841,0.446562 -0.26373,0.261332 -0.20575,0.294032 0.86841,0.489788 l 0.64,0.116636 -0.56,0.150088 c -1.91739,0.513886 -3.2,0.954284 -3.2,1.098755 0,0.111673 0.48938,0.130557 1.48,0.0571 1.3042,-0.0967 1.45149,-0.08176 1.24,0.125778 -0.132,0.129533 -0.654,0.402758 -1.16,0.607166 -0.95869,0.387284 -1.1753,0.632303 -0.56,0.633429 0.2146,3.2e-4 -0.41001,0.418218 -1.54652,1.034517 -1.04858,0.568622 -1.98098,1.108326 -2.072,1.199341 -0.25928,0.259278 0.21511,0.20447 1.21864,-0.140795 0.48962,-0.168453 1.55051,-0.466261 2.35754,-0.661796 1.28639,-0.311681 1.49612,-0.326715 1.70091,-0.121926 0.20479,0.20479 0.0504,0.297266 -1.25249,0.749989 -0.81734,0.284019 -1.66496,0.61428 -1.8836,0.733915 l -0.39752,0.217517 0.59752,0.112096 c 0.32864,0.06165 0.59752,0.162472 0.59752,0.224041 0,0.06157 -0.378,0.206618 -0.84,0.322328 -1.34248,0.336229 -4.19107,1.318775 -4.29584,1.481732 -0.0527,0.08199 -0.0631,0.32055 -0.023,0.530137 0.0435,0.227386 -0.0603,0.568027 -0.25726,0.844645 -0.41271,0.579602 -2.71161,1.72991 -2.96028,1.481243 -0.0922,-0.0922 -0.27988,-0.167643 -0.41706,-0.167643 -0.34357,0 -3.00563,1.800315 -2.7755,1.877027 0.10191,0.03397 0.54855,-0.0043 0.99253,-0.08496 0.44399,-0.0807 0.76973,-0.08601 0.72387,-0.01181 -0.0459,0.0742 -0.6018,0.435341 -1.23543,0.802531 -3.04597,1.765154 -5.375258,3.566316 -7.6576,5.921368 -1.482106,1.52932 -1.76509,1.753071 -2.16,1.707864 -0.360986,-0.04132 -0.464863,-0.142515 -0.505077,-0.492022 -0.02784,-0.242 -0.104887,-0.44 -0.1712,-0.44 -0.237053,0 -1.458173,1.149349 -1.458173,1.372467 0,0.279064 0.07441,0.283271 0.487053,0.02753 0.265992,-0.164848 0.349544,-0.157818 0.475379,0.04 0.08397,0.132 0.153771,0.289851 0.155118,0.350779 0.0022,0.100855 -1.091574,1.082474 -2.070761,1.858375 -0.315016,0.249617 -0.362743,0.376374 -0.24,0.637403 0.213041,0.453061 7.985929,8.695939 13.912231,14.753443 6.75242,6.9019 7.78813,8.04831 6.78728,7.51267 -0.4887,-0.26155 -0.57544,-0.0495 -0.16044,0.39228 0.19825,0.21103 0.67426,0.4627 1.0578,0.55928 0.6982,0.17581 1.11498,0.49577 0.64578,0.49577 -0.55718,0 -0.18322,0.50663 0.95451,1.29314 1.28823,0.89055 1.47659,1.17811 0.41793,0.63802 -1.40811,-0.71836 -1.13252,-0.23923 0.57812,1.00508 1.4614,1.06302 0.91365,1.059 -0.6756,-0.005 -0.35975,-0.24084 -0.78825,-0.28404 -0.65342,-0.0659 0.10008,0.16194 2.82903,2.23618 3.89212,2.95836 0.37548,0.25508 0.65611,0.49035 0.62362,0.52284 -0.0325,0.0325 -0.37579,-0.0846 -0.7629,-0.26025 -0.75884,-0.34429 -1.1783,-0.41631 -1.03034,-0.17691 0.0508,0.0822 0.91905,0.77348 1.92944,1.53618 1.26237,0.95291 1.83708,1.4863 1.83708,1.70502 0,0.28915 -0.10617,0.26072 -1.16,-0.31058 -1.61284,-0.87435 -1.77959,-0.92523 -1.67096,-0.50981 0.0694,0.26554 0.032,0.31262 -0.18071,0.22703 -0.14758,-0.0594 -0.37633,-0.14861 -0.50833,-0.19826 -0.46932,-0.17652 0.57163,0.80172 1.29608,1.21801 0.40484,0.23263 0.75491,0.49496 0.77793,0.58296 0.023,0.088 0.32523,0.40256 0.67157,0.69902 0.34635,0.29646 0.59596,0.57278 0.55469,0.61404 -0.0738,0.0739 -0.87838,-0.40585 -4.64249,-2.76815 -1.76679,-1.10881 -2.21224,-1.30898 -1.94283,-0.87307 0.12436,0.20121 3.80035,3.17886 4.43161,3.58973 0.23462,0.1527 0.46922,0.38878 0.52135,0.52463 0.0722,0.18802 -0.0488,0.16197 -0.50656,-0.10909 -4.13855,-2.45068 -5.49898,-3.28274 -5.79181,-3.54233 -0.19296,-0.17105 -0.21248,-0.15746 -0.12,0.0836 0.0607,0.15832 0.11046,0.34334 0.11046,0.41116 0,0.0678 0.45,0.47421 1,0.9031 0.55,0.42889 1.02324,0.83322 1.05164,0.89852 0.0284,0.0653 0.40978,0.38163 0.84752,0.70296 0.43773,0.32132 0.76216,0.61795 0.72094,0.65917 -0.0412,0.0412 -0.29572,-0.0883 -0.56555,-0.28778 -0.26984,-0.1995 -0.5455,-0.30597 -0.61258,-0.2366 -0.0671,0.0694 0.0562,0.24425 0.27398,0.38863 0.92602,0.61395 2.24418,1.81286 2.15385,1.95901 -0.0538,0.0871 0.23084,0.44779 0.63264,0.80147 0.58345,0.51358 0.69144,0.68491 0.53634,0.85095 -0.15808,0.16922 -0.37321,0.1209 -1.15649,-0.25975 -2.83936,-1.37984 -5.79703,-2.9665 -5.92957,-3.18094 -0.0504,-0.0815 -0.20517,-0.14822 -0.34398,-0.14822 -0.34833,0 0.39334,0.73798 0.83126,0.82712 0.18238,0.0371 0.31048,0.1827 0.29786,0.3385 -0.0127,0.15671 0.30326,0.51221 0.74047,0.83315 0.41943,0.3079 0.94708,0.80167 1.17256,1.09728 l 0.40995,0.53748 -0.63096,-0.11538 c -0.34703,-0.0635 -0.90072,-0.29885 -1.23042,-0.52309 -0.3297,-0.22424 -1.75146,-1.0502 -3.15946,-1.83546 -1.408,-0.78527 -3.28024,-1.85342 -4.16054,-2.37368 -2.01727,-1.19221 -2.45893,-1.41978 -2.55978,-1.31894 -0.0871,0.0871 1.71871,1.5364 2.09353,1.68023 0.12473,0.0479 0.22679,0.17854 0.22679,0.29039 0,0.11185 0.162,0.31228 0.36,0.4454 1.01561,0.68278 -0.8616,0.24164 -1.99682,-0.46926 -1.00986,-0.63239 -1.32483,-0.40878 -0.3548,0.25188 0.33079,0.22529 0.53168,0.47557 0.48317,0.60198 -0.0624,0.16256 0.0213,0.19017 0.33658,0.11104 0.29481,-0.074 0.3859,-0.0508 0.30629,0.078 -0.0623,0.10083 -0.0351,0.18333 0.0605,0.18333 0.0956,0 0.40582,0.21642 0.68944,0.48094 0.28363,0.26452 0.65957,0.58263 0.83543,0.70692 0.17586,0.12429 0.27602,0.2697 0.22259,0.32314 -0.0534,0.0534 -0.54949,-0.15851 -1.10234,-0.471 -1.00552,-0.56835 -1.50176,-0.63998 -0.81311,-0.11737 0.20102,0.15255 0.56611,0.46503 0.8113,0.69438 0.56902,0.53227 1.8602,1.16087 2.15339,1.04836 0.12376,-0.0475 0.29735,8e-4 0.38576,0.10732 0.12237,0.14745 0.001,0.18134 -0.5083,0.142 l -0.66904,-0.0517 0.56,0.51067 c 1.11408,1.01595 1.53953,1.36701 2.68,2.21143 1.01059,0.74825 1.28098,0.98297 1.12,0.97221 -0.022,-10e-4 -0.652,-0.33097 -1.4,-0.73221 z M 50.509688,110.85211 C 50.71336,110.66077 50.88,110.37455 50.88,110.21607 c 0,-0.24819 -0.06098,-0.26496 -0.439707,-0.12097 -0.551794,0.20979 -1.000293,0.6087 -1.000293,0.8897 0,0.33496 0.658894,0.25323 1.069688,-0.13269 z m 4.637824,-6.49266 c 0.288786,-0.36355 1.008102,-1.79945 0.901435,-1.79945 -0.153029,0 -2.128947,1.97516 -2.128947,2.12813 0,0.24264 0.982694,-0.0205 1.227512,-0.32868 z m -0.899469,-3.96442 c 0.07074,-0.0437 0.213891,-0.33789 0.318122,-0.653707 0.15903,-0.481869 0.149285,-0.614445 -0.0606,-0.824326 -0.226808,-0.226808 -0.31417,-0.18597 -0.937837,0.438409 -0.37825,0.378684 -0.849728,0.794914 -1.047728,0.924954 -0.198,0.13004 -0.36,0.32978 -0.36,0.44385 0,0.16758 0.188154,0.16352 0.979715,-0.0211 0.538843,-0.12571 1.037591,-0.26432 1.108328,-0.30804 z M 59.498589,100 c 0.149829,0 0.390401,-0.198 0.534606,-0.44 0.438483,-0.735854 0.91964,-1.16 1.31592,-1.16 0.381847,0 0.574298,-0.267808 0.661127,-0.92 0.05591,-0.419987 -0.323354,-0.49721 -0.47689,-0.0971 -0.05549,0.144595 -0.13624,0.227544 -0.179454,0.184331 -0.04321,-0.04321 0.107985,-0.412352 0.335998,-0.82031 0.228011,-0.407957 0.391062,-0.861236 0.362334,-1.007287 -0.03404,-0.173038 -0.445992,0.25804 -1.182521,1.237408 -2.219421,2.951183 -2.451528,3.333008 -1.896623,3.120078 C 59.112283,100.0437 59.34876,100 59.498589,100 Z M 51.2,98.48 c 0.365309,-0.388853 0.366598,-0.4 0.04629,-0.4 -0.181217,0 -0.447429,0.18 -0.591577,0.4 -0.204914,0.312736 -0.215013,0.4 -0.04629,0.4 0.118689,0 0.384899,-0.18 0.591579,-0.4 z m 16.08,-0.0605 c 0.272675,-0.05831 0.48,-0.205624 0.48,-0.341069 0,-0.131136 0.09463,-0.3382 0.210286,-0.460143 0.148192,-0.156248 0.160181,-0.271819 0.0406,-0.391401 -0.119581,-0.119581 -0.239227,-0.07774 -0.405197,0.141715 -0.212827,0.281406 -0.236002,0.28443 -0.2406,0.0314 -0.0086,-0.471906 -0.451765,-0.312062 -0.87932,0.317141 -0.223173,0.328429 -0.405768,0.652429 -0.405768,0.72 0,0.140032 0.49679,0.132728 1.2,-0.01764 z M 56.854782,96.36 c 0.407952,-0.594 1.20172,-1.754315 1.763928,-2.578477 0.56221,-0.824163 1.118909,-1.558248 1.237111,-1.631301 0.118201,-0.07305 0.163438,-0.184296 0.100526,-0.247208 -0.110574,-0.110574 -0.756086,0.368725 -0.756601,0.561784 -1.4e-4,0.05236 -0.477983,0.599202 -1.061872,1.215202 -1.395762,1.47252 -2.83234,3.38243 -2.702357,3.592746 0.254085,0.411118 0.712544,0.116278 1.419265,-0.912746 z M 107.68,96.989989 c 0,-0.411506 -16.353477,-17.329845 -16.555736,-17.127586 -0.08954,0.08953 4.005429,4.9608 5.966501,7.097597 0.484577,0.528 1.277736,1.392 1.762571,1.92 2.273984,2.476429 3.446264,3.611365 3.649614,3.533334 0.11938,-0.04581 0.21705,0.01466 0.21705,0.134376 0,0.119719 0.594,0.724448 1.32,1.343847 0.726,0.619398 1.78592,1.599187 2.35538,2.17731 0.98368,0.998653 1.28462,1.214435 1.28462,0.921122 z M 47.984789,95.805077 c 0.315557,-0.389989 0.344344,-0.501157 0.16,-0.617864 -0.355309,-0.224944 -0.449243,-0.180424 -0.786543,0.372787 -0.413888,0.678826 -0.4342,1.157685 -0.03825,0.90167 0.154,-0.09957 0.453155,-0.39504 0.664789,-0.656593 z M 68.59885,96.00723 C 69.128928,95.335027 69.240142,94.854339 68.730086,95.44 68.117717,96.143141 68,96.296838 68,96.393246 c 0,0.207074 0.266749,0.03513 0.59885,-0.386016 z M 52.64,94.221115 c 0,-0.088 -0.072,-0.115502 -0.16,-0.06112 -0.088,0.05439 -0.16,0.170885 -0.16,0.258885 0,0.088 0.072,0.115502 0.16,0.06112 0.088,-0.05439 0.16,-0.170885 0.16,-0.258885 z M 50.24,93.68 c 0.169818,-0.204619 0.125531,-0.24 -0.30041,-0.24 -0.476027,0 -0.624852,0.141405 -0.392923,0.373333 C 49.725149,93.991816 50.029846,93.933219 50.24,93.68 Z m -0.491259,-1.498963 c 0.192211,-0.359149 0.07646,-0.514504 -0.284384,-0.381683 -0.273272,0.100587 -0.497631,0.351203 -0.501907,0.560646 -0.0051,0.251528 0.633718,0.106123 0.786291,-0.178963 z M 51.970138,91.24 c 0.06214,-0.644477 -0.134642,-0.666437 -0.49564,-0.05531 -0.357893,0.605864 -0.346706,0.687826 0.0855,0.626442 0.27592,-0.03919 0.37171,-0.172576 0.410138,-0.571128 z m 1.57076,0.203238 c 0.04997,-0.130219 0.33571,-0.388092 0.634977,-0.573049 C 54.475144,90.68523 54.72,90.43031 54.72,90.303699 c 0,-0.374549 -1.264107,0.353669 -1.446446,0.833258 -0.192196,0.505509 -0.191402,0.543043 0.01147,0.543043 0.09076,0 0.205907,-0.106542 0.255876,-0.236762 z M 53.431587,89.16 c 0.09164,-0.33 0.167031,-0.759571 0.16752,-0.954603 l 9.6e-4,-0.354605 -0.56,0.330408 c -0.587843,0.346837 -0.725353,0.725392 -0.32,0.880939 0.132,0.05065 0.24,0.228394 0.24,0.394979 0,0.519012 0.296882,0.331964 0.471587,-0.297118 z M 57.56,80.748307 c 0.387754,-0.349072 0.486504,-0.908998 0.16,-0.907214 -0.225229,0.0013 -0.92,0.951443 -0.92,1.258251 0,0.228778 0.238096,0.118803 0.76,-0.351037 z M 90.8,74.94783 c 0.528,-0.397822 1.068552,-0.809828 1.201226,-0.915571 0.132673,-0.105742 0.762673,-0.587518 1.4,-1.070613 C 94.038552,72.47855 94.56,72.02677 94.56,71.957686 c 0,-0.06908 0.18,-0.194043 0.4,-0.277686 0.22,-0.08364 0.4,-0.226002 0.4,-0.31635 0,-0.250432 -0.878166,0.277278 -2.592331,1.557792 -2.289725,1.710465 -3.507298,2.757355 -3.403066,2.926006 0.056,0.09061 0.167661,0.08531 0.283855,-0.01347 C 89.753806,75.744416 90.272,75.34565 90.8,74.947829 Z M 90.084104,72.4 c 1.634792,-1.313811 1.829448,-1.499781 1.702598,-1.62663 -0.0605,-0.06051 -0.199265,0.0045 -0.308355,0.144408 -0.109091,0.139931 -0.810347,0.653641 -1.558347,1.14158 -1.84052,1.200618 -1.977434,1.320192 -1.860502,1.624909 0.0902,0.235072 0.134195,0.232013 0.464849,-0.03231 C 88.725216,73.491379 89.427106,72.928 90.084104,72.4 Z M 100.64,65.328542 c 0.132,-0.05881 0.816,-0.444425 1.52,-0.856913 0.704,-0.412488 1.58527,-0.921349 1.95839,-1.130803 0.37311,-0.209455 1.41711,-0.819714 2.32,-1.356133 0.90288,-0.536418 1.87276,-1.112418 2.15528,-1.28 C 111.20107,59.158069 112,58.64412 112,58.513411 c 0,-0.09379 -0.0771,-0.09163 -0.2,0.0056 -0.11,0.08702 -1.39108,0.710035 -2.84685,1.384479 -1.45577,0.674443 -4.07924,2.0059 -5.82993,2.958793 -2.93169,1.595703 -3.198638,1.777469 -3.38007,2.301525 -0.23476,0.678088 -0.128417,0.846803 0.3246,0.514995 0.18274,-0.133841 0.44025,-0.291469 0.57225,-0.350285 z M 41.28,120.8 c 0,-0.088 0.18,-0.16 0.4,-0.16 0.22,0 0.4,0.072 0.4,0.16 0,0.088 -0.18,0.16 -0.4,0.16 -0.22,0 -0.4,-0.072 -0.4,-0.16 z m 63.19887,-0.64212 c -0.10712,-0.20015 -0.11764,-0.41997 -0.0278,-0.58055 0.16175,-0.28902 0.25545,-0.18325 0.40984,0.46267 0.12306,0.51486 -0.12813,0.59236 -0.38206,0.11788 z m -52.527854,-0.5802 c -0.127829,-0.12783 0.01667,-0.37768 0.218427,-0.37768 0.08281,0 0.150557,0.108 0.150557,0.24 0,0.24743 -0.188794,0.31787 -0.368984,0.13768 z M 42.48,119.04 c 0.437021,-0.18779 0.56,-0.18779 0.56,0 0,0.088 -0.198,0.15494 -0.44,0.14875 -0.389894,-0.01 -0.40356,-0.0269 -0.12,-0.14875 z m 13.306667,-0.42667 C 55.728,118.55467 55.68,118.43227 55.68,118.34133 c 0,-0.10025 0.07452,-0.0908 0.189333,0.024 0.104134,0.10414 0.152134,0.22654 0.106667,0.272 -0.04547,0.0455 -0.130667,0.0347 -0.189333,-0.024 z M 101.2,118.4 c 0.0544,-0.088 0.13064,-0.16 0.16944,-0.16 0.0388,0 0.0706,0.072 0.0706,0.16 0,0.088 -0.0763,0.16 -0.16944,0.16 -0.0932,0 -0.12495,-0.072 -0.0706,-0.16 z m -48.68,-0.10596 c -0.479677,-0.19356 -0.03001,-0.67966 0.64,-0.69186 0.232475,-0.004 0.116798,0.60481 -0.133086,0.7007 -0.139197,0.0534 -0.265197,0.0914 -0.28,0.0845 -0.0148,-0.007 -0.116914,-0.049 -0.226914,-0.0933 z m 62.82725,-0.14941 c -0.18504,-0.22295 -0.16373,-0.24834 0.16787,-0.2 0.2089,0.0305 0.40945,0.14537 0.44568,0.25537 0.0948,0.28787 -0.36298,0.24656 -0.61355,-0.0554 z M 42.4,118.05812 c 0,-0.25441 1.111944,-1.47692 1.562824,-1.71822 0.507294,-0.2715 0.997176,-0.0465 0.997176,0.45795 0,0.40178 -0.06178,0.4475 -0.702291,0.51969 -0.425159,0.0479 -0.930261,0.25304 -1.28,0.5198 C 42.594826,118.12938 42.4,118.20384 42.4,118.05812 Z m 2.72,0.0142 c 0,-0.1733 0.989005,-0.65608 1.105686,-0.53973 0.03613,0.036 -0.06503,0.20993 -0.224798,0.38647 C 45.694742,118.25731 45.12,118.3573 45.12,118.07228 Z m 5.6,-0.31228 c 0,-0.088 0.108,-0.16 0.24,-0.16 0.132,0 0.24,0.072 0.24,0.16 0,0.088 -0.108,0.16 -0.24,0.16 -0.132,0 -0.24,-0.072 -0.24,-0.16 z m 3.751699,-0.33343 c -0.149472,-0.24185 0.472727,-0.44933 0.678869,-0.22638 0.150958,0.16327 0.108592,0.22178 -0.203818,0.2815 -0.216913,0.0415 -0.430686,0.0167 -0.475051,-0.0551 z M 56.64,117.44 c 0,-0.088 0.072,-0.16 0.16,-0.16 0.088,0 0.16,0.072 0.16,0.16 0,0.088 -0.072,0.16 -0.16,0.16 -0.088,0 -0.16,-0.072 -0.16,-0.16 z m 45.38667,-0.74667 c -0.0587,-0.0587 -0.10448,-0.22066 -0.1018,-0.36 0.004,-0.20805 0.0352,-0.20113 0.17466,0.0387 0.17229,0.29627 0.12234,0.51654 -0.0729,0.32133 z M 55.52,116.48 c 0,-0.088 0.072,-0.16 0.16,-0.16 0.088,0 0.16,0.072 0.16,0.16 0,0.088 -0.072,0.16 -0.16,0.16 -0.088,0 -0.16,-0.072 -0.16,-0.16 z m 39.44,0 c -0.05439,-0.088 0.05361,-0.16 0.24,-0.16 0.186387,0 0.294387,0.072 0.24,0.16 -0.05439,0.088 -0.162387,0.16 -0.24,0.16 -0.07761,0 -0.185613,-0.072 -0.24,-0.16 z m -53.52,-0.4 c 0,-0.25807 0.146554,-0.29651 0.545995,-0.14324 0.325647,0.12497 0.166978,0.38324 -0.235438,0.38324 -0.170807,0 -0.310557,-0.108 -0.310557,-0.24 z m 4.595179,-0.23412 c -0.08431,-0.32239 0.230899,-0.72647 0.419543,-0.53783 0.0579,0.0579 0.105278,0.27328 0.105278,0.47862 0,0.45462 -0.409342,0.50081 -0.524821,0.0592 z m 1.044746,0.11412 c 0.03662,-0.11 0.202334,-0.2263 0.36824,-0.25845 0.260976,-0.0506 0.272728,-0.0236 0.08715,0.2 -0.253792,0.3058 -0.550424,0.34387 -0.45539,0.0584 z m 49.151459,0.0261 c -0.216421,-0.35018 0.190238,-0.47576 0.485195,-0.14984 0.285303,0.31526 0.284187,0.32378 -0.04234,0.32378 -0.184445,0 -0.38373,-0.0783 -0.442855,-0.17394 z M 58.48,115.84 c -0.05439,-0.088 -0.02264,-0.16 0.07056,-0.16 0.09319,0 0.169443,0.072 0.169443,0.16 0,0.088 -0.03175,0.16 -0.07056,0.16 -0.03881,0 -0.115056,-0.072 -0.169443,-0.16 z m -2.577814,-0.25127 C 55.955984,115.44853 56,115.30372 56,115.26691 c 0,-0.0368 0.072,-0.0669 0.16,-0.0669 0.260638,0 0.182114,0.43728 -0.09781,0.5447 -0.1887,0.0724 -0.231592,0.0306 -0.16,-0.15597 z m 1.928395,-0.63382 c 0.404246,-0.30575 0.66471,-0.30252 0.409419,0.005 -0.10955,0.132 -0.316366,0.23771 -0.45959,0.23491 -0.218772,-0.004 -0.210751,-0.0426 0.05017,-0.24 z M 106.82214,114.48 c -0.0507,-0.132 -0.0224,-0.24 0.0629,-0.24 0.0852,0 0.15498,0.108 0.15498,0.24 0,0.132 -0.0283,0.24 -0.0629,0.24 -0.0346,0 -0.10433,-0.108 -0.15498,-0.24 z M 54.72,114.39056 c 0,-0.0932 0.072,-0.12495 0.16,-0.0706 0.088,0.0544 0.16,0.13064 0.16,0.16944 0,0.0388 -0.072,0.0706 -0.16,0.0706 -0.088,0 -0.16,-0.0763 -0.16,-0.16944 z m 2.28,0.0635 c -0.235902,-0.0952 -0.265462,-0.4747 -0.04747,-0.60943 0.08389,-0.0518 0.298366,0.0306 0.476608,0.18322 0.239365,0.20495 0.272683,0.31012 0.127467,0.40237 -0.217982,0.13848 -0.267262,0.14059 -0.556608,0.0238 z M 53.312,114.048 c -0.403349,-0.40335 -0.199314,-0.84029 0.676163,-1.448 1.403891,-0.97451 1.640859,-0.74676 0.494547,0.47531 -0.394508,0.42058 -0.718508,0.85469 -0.72,0.96469 -0.0034,0.25294 -0.202244,0.25647 -0.45071,0.008 z m 5.408,0.0543 c 0,-0.30823 0.45297,-0.70687 0.696862,-0.61328 0.401965,0.15425 0.315004,0.38164 -0.216862,0.56705 -0.264,0.092 -0.48,0.11283 -0.48,0.0462 z m 1.63663,-0.0521 c 0.07972,-0.23918 0.44337,-0.37086 0.44337,-0.16056 0,0.0859 -0.114016,0.19997 -0.25337,0.25344 -0.155825,0.0598 -0.228972,0.024 -0.19,-0.0929 z M 36.48,113.76 c 0,-0.088 0.14825,-0.16 0.329443,-0.16 0.181194,0 0.284944,0.072 0.230557,0.16 -0.05439,0.088 -0.202637,0.16 -0.329443,0.16 -0.126807,0 -0.230557,-0.072 -0.230557,-0.16 z m 56.64,-0.72 c -0.11308,-0.13625 -0.1696,-0.28373 -0.1256,-0.32773 0.044,-0.044 0.17252,0.0315 0.2856,0.16773 0.11308,0.13625 0.1696,0.28373 0.1256,0.32773 -0.044,0.044 -0.17252,-0.0315 -0.2856,-0.16773 z m -53.44,-0.38839 c 0,-0.20462 0.79393,-0.81161 1.061578,-0.81161 0.361097,0 0.246968,0.21908 -0.312572,0.6 -0.574924,0.3914 -0.749006,0.44058 -0.749006,0.21161 z m 18.989006,-0.0824 c -0.210355,-0.15946 -0.429057,-0.18099 -0.789208,-0.0777 -0.5358,0.15367 -0.509841,0.11766 0.389527,-0.54036 0.82055,-0.60034 1.159976,-0.57768 1.030675,0.0688 -0.055,0.275 -0.1,0.563 -0.1,0.64 0,0.19843 -0.193024,0.16543 -0.530994,-0.0908 z M 62.64,111.68 c 0.159278,-0.176 0.325597,-0.32 0.369597,-0.32 0.044,0 -0.05032,0.144 -0.209597,0.32 -0.159278,0.176 -0.325597,0.32 -0.369597,0.32 -0.044,0 0.05032,-0.144 0.209597,-0.32 z m -25.04,0.002 c 0,-0.15557 0.632997,-0.64163 0.835602,-0.64163 0.273528,0 0.09618,0.25491 -0.356613,0.51256 C 37.815544,111.70247 37.6,111.76055 37.6,111.68163 Z M 56,111.4515 c 0,-0.36675 0.147656,-0.48887 0.52,-0.43008 0.066,0.0104 0.12,-0.0891 0.12,-0.22105 0,-0.132 0.13975,-0.24 0.310557,-0.24 0.424632,0 0.556835,0.26505 0.1812,0.36328 -0.167555,0.0438 -0.328746,0.25001 -0.358202,0.4582 -0.03533,0.24973 -0.17604,0.39592 -0.413555,0.42965 -0.293197,0.0416 -0.36,-0.0252 -0.36,-0.36 z m 34.506667,0.2822 C 90.448,111.67467 90.4,111.55227 90.4,111.46133 c 0,-0.10025 0.07452,-0.0908 0.189333,0.024 0.104134,0.10414 0.152134,0.22654 0.106667,0.272 -0.04547,0.0455 -0.130667,0.0347 -0.189333,-0.024 z M 55.04,110.73712 c 0,-0.0786 0.108,-0.18433 0.24,-0.23498 0.146194,-0.0561 0.24,-3.2e-4 0.24,0.14288 0,0.12924 -0.108,0.23498 -0.24,0.23498 -0.132,0 -0.24,-0.0643 -0.24,-0.14288 z m 34.72,-0.60379 c 0,-0.48118 0.13625,-0.43206 0.23583,0.085 0.03619,0.18791 -0.0021,0.34165 -0.08502,0.34165 -0.08295,0 -0.150813,-0.192 -0.150813,-0.42667 z m -44.48,0.0763 c 0,-0.10469 0.378,-0.54029 0.84,-0.968 0.614258,-0.56868 0.854051,-0.71025 0.892288,-0.52678 0.0291,0.13963 -0.290178,0.56607 -0.72,0.96165 C 45.485366,110.41917 45.28,110.52733 45.28,110.20967 Z M 35.76,109.6 c 0.05439,-0.088 0.130637,-0.16 0.169443,-0.16 0.03881,0 0.07056,0.072 0.07056,0.16 0,0.088 -0.07625,0.16 -0.169443,0.16 -0.09319,0 -0.124944,-0.072 -0.07056,-0.16 z m 52.838142,0.0506 c -0.04064,-0.0718 -0.116868,-0.34664 -0.169387,-0.61064 -0.09499,-0.47751 -0.09423,-0.4772 0.145933,0.0586 0.132781,0.29624 0.209005,0.57103 0.169387,0.61065 -0.03962,0.0396 -0.105286,0.0132 -0.145933,-0.0586 z M 56.64,109.31043 c 0,-0.0775 0.144,-0.27115 0.32,-0.43043 0.28244,-0.2556 0.32,-0.25918 0.32,-0.0304 0,0.14255 -0.144,0.33624 -0.32,0.43043 -0.176,0.0942 -0.32,0.10788 -0.32,0.0304 z m 0.487334,-1.45673 c -0.123836,-0.23139 -0.126272,-0.3337 -0.0079,-0.3337 0.19397,0 0.405219,0.44872 0.273338,0.5806 -0.04774,0.0477 -0.16717,-0.0634 -0.265396,-0.2469 z M 38.18177,107.761 c 0.06827,-0.1779 0.254436,-0.24307 0.598654,-0.20957 0.69509,0.0676 0.62627,0.35812 -0.09908,0.41819 -0.496028,0.0411 -0.581669,0.005 -0.499576,-0.20862 z m 2.7839,-1.161 c 0.0031,-0.154 0.108567,-0.46 0.23433,-0.68 0.343979,-0.60173 0.29504,-0.74675 -0.36,-1.06682 -0.33,-0.16125 -0.621579,-0.41035 -0.647954,-0.55356 -0.04653,-0.25265 0.320144,-0.3535 2.527954,-0.69529 0.22,-0.0341 0.526,-0.11067 0.68,-0.17024 0.402171,-0.15559 0.366554,0.34833 -0.04,0.56591 -0.178896,0.0957 -0.32,0.33501 -0.32,0.54262 0,0.43069 -0.906072,1.68041 -1.50092,2.07016 -0.51225,0.33564 -0.580435,0.33412 -0.57341,-0.0128 z m 43.667967,-0.61485 c -0.411066,-0.95897 -0.574783,-1.6406 -0.342303,-1.42515 0.178226,0.16517 0.848896,2.16 0.726202,2.16 -0.0379,0 -0.210654,-0.33068 -0.383899,-0.73485 z M 61.6,106.11466 c 0,-0.26867 -0.04613,-0.60871 -0.102522,-0.75565 -0.08084,-0.21066 -0.02196,-0.25573 0.278367,-0.21309 0.501531,0.0712 0.567845,0.51179 0.155864,1.03554 L 61.6,106.60316 Z M 38.72,105.92 c 0.09419,-0.176 0.258725,-0.33127 0.365629,-0.34504 0.64072,-0.0826 1.074371,-0.0728 1.074371,0.0241 0,0.27296 -0.630514,0.64094 -1.098227,0.64094 -0.463451,0 -0.49648,-0.0309 -0.341773,-0.32 z m 24.16,-1.02041 c 0,-0.0332 0.126,-0.15922 0.28,-0.28 0.25377,-0.19902 0.259429,-0.19336 0.06041,0.0604 -0.20902,0.26652 -0.34041,0.35128 -0.34041,0.21959 z M 83.070667,104.468 c 0.03153,-0.0946 0.125733,-0.172 0.209333,-0.172 0.0836,0 0.1778,0.0774 0.209333,0.172 0.03153,0.0946 -0.06267,0.172 -0.209333,0.172 -0.146667,0 -0.240867,-0.0774 -0.209333,-0.172 z m -1.053549,-1.52109 c -0.150196,-0.3914 -0.117632,-0.44312 0.142882,-0.22691 0.265981,0.22074 0.318435,0.48 0.09712,0.48 -0.07859,0 -0.186585,-0.11389 -0.24,-0.25309 z M 64.56,102.88 c 0.05439,-0.088 0.130637,-0.16 0.169443,-0.16 0.03881,0 0.07056,0.072 0.07056,0.16 0,0.088 -0.07625,0.16 -0.169443,0.16 -0.09319,0 -0.124944,-0.072 -0.07056,-0.16 z m -22.78608,-1.32 c 0.273654,-0.532 0.973747,-1.24 1.226152,-1.24 0.152021,0 0.204678,0.16086 0.170066,0.51953 -0.0398,0.4124 -0.165618,0.57578 -0.610138,0.79231 -0.808395,0.39379 -1.01584,0.37483 -0.78608,-0.0718 z m 38.079925,-0.73413 c -0.109874,-0.2053 -0.168199,-0.40485 -0.129608,-0.44344 0.125609,-0.12561 0.467952,0.401 0.397699,0.61176 -0.04323,0.12969 -0.141685,0.0679 -0.268091,-0.16832 z M 78.32997,99.42045 c -0.31058,-0.406754 -0.521751,-0.809028 -0.469271,-0.893941 0.05248,-0.08492 0.147443,-0.09412 0.211029,-0.02045 0.216654,0.251008 0.982058,1.653941 0.902346,1.653941 -0.04368,0 -0.333525,-0.332798 -0.644104,-0.73955 z M 43.55619,97.188214 c 0.151906,-0.159041 0.320072,-0.245286 0.373704,-0.191654 0.05363,0.05363 -0.07065,0.183758 -0.27619,0.289166 -0.357258,0.18322 -0.361549,0.178928 -0.09751,-0.09751 z M 44.72,96 c 0.05439,-0.088 0.166637,-0.16 0.249443,-0.16 0.08281,0 0.150557,0.072 0.150557,0.16 0,0.088 -0.11225,0.16 -0.249443,0.16 C 44.733363,96.16 44.665613,96.088 44.72,96 Z m 26.51663,-2.589891 c 0.07972,-0.239175 0.44337,-0.370863 0.44337,-0.16056 0,0.08592 -0.114016,0.199966 -0.25337,0.253441 -0.155825,0.0598 -0.228972,0.02404 -0.19,-0.09288 z M 70,90.08 c -0.05439,-0.088 -0.02264,-0.16 0.07056,-0.16 0.09319,0 0.169443,0.072 0.169443,0.16 0,0.088 -0.03175,0.16 -0.07056,0.16 C 70.130637,90.24 70.054387,90.168 70,90.08 Z M 81.92,54.97959 c 0,-0.274356 0.279696,-0.50476 0.8,-0.659009 0.399779,-0.118519 0.399741,-0.118309 -0.06993,0.380417 C 82.14121,55.241328 81.92,55.325742 81.92,54.97959 Z m 31.97,-7.728888 c 0.1155,-0.04622 0.2535,-0.04054 0.30667,0.01262 0.0532,0.05317 -0.0413,0.09098 -0.21,0.08404 -0.18639,-0.0077 -0.22431,-0.04559 -0.0967,-0.09667 z"
       id="path792" />
  </g>
</svg>
